<?xml version="1.0" encoding="utf-8"?>
<!-- Generator: Adobe Illustrator 23.0.1, SVG Export Plug-In . SVG Version: 6.00 Build 0)  -->
<svg version="1.1" id="Layer_1" xmlns="http://www.w3.org/2000/svg" xmlns:xlink="http://www.w3.org/1999/xlink" x="0px" y="0px"
	 viewBox="0 0 841.89 595.28" style="enable-background:new 0 0 841.89 595.28;" xml:space="preserve">
<style type="text/css">
	.st0{opacity:0.2;fill:#231F20;}
	.st1{fill:#555F68;}
	.st2{fill:#ECE4D5;}
	.st3{fill:#9F9486;}
	.st4{fill:#F8E8D2;}
	.st5{fill:#655E3F;}
	.st6{font-family:'SofiaPro-Black';}
	.st7{font-size:33.2665px;}
	.st8{clip-path:url(#SVGID_2_);}
	.st9{fill:#EBAE20;}
	.st10{fill:#FDD66F;}
	.st11{font-size:59.6221px;}
	.st12{opacity:0.3;fill:#FFFFFF;}
	.st13{display:none;}
	.st14{display:inline;fill:#EBAE20;}
	.st15{display:inline;fill:#FDD66F;}
	.st16{display:inline;}
	.st17{font-size:59.5357px;}
	.st18{display:inline;opacity:0.3;fill:#FFFFFF;}
	.st19{font-size:59.5356px;}
</style>
<g>
	<ellipse class="st0" cx="432.02" cy="448.85" rx="200.01" ry="8.8"/>
	<g>
		<g>
			<g>
				<g>
					<rect x="314.03" y="277.16" class="st1" width="219.06" height="143.65"/>
					<polygon class="st2" points="284.12,264.2 564.77,264.2 564.77,239.68 421.36,163.36 284.12,239.11 					"/>
					<polygon class="st3" points="309.8,254.96 295.44,254.96 308.09,248.32 421.33,185.82 538.73,248.3 551.64,254.96 
						537.06,254.96 					"/>
					<polygon class="st1" points="309.8,251.42 421.36,189.84 537.06,251.42 					"/>
					<rect x="281.26" y="267.52" class="st3" width="287.89" height="16.12"/>
					<rect x="277.72" y="259.07" class="st2" width="294.97" height="16.52"/>
					<rect x="277.72" y="259.07" class="st3" width="294.97" height="5.14"/>
					<rect x="281.26" y="414.61" class="st3" width="287.89" height="16.12"/>
					<rect x="277.72" y="422.67" class="st2" width="294.97" height="16.52"/>
					<rect x="273.39" y="430.69" class="st1" width="303.62" height="17"/>
					<g>
						<g>
							<rect x="308.49" y="285.98" class="st1" width="15.51" height="11.3"/>
							<g>
								<g>
									<polygon class="st2" points="305.87,293.08 304.08,388.72 328.49,388.72 326.78,293.07 									"/>
									<polygon class="st3" points="327.96,394.69 333.76,396.22 333.76,411.29 299.13,411.29 299.13,396.22 304.92,394.72 
																			"/>
									<polygon class="st4" points="333.65,396.16 327.96,393.1 304.92,393.12 299.25,396.16 									"/>
									<rect x="314.03" y="285.76" class="st3" width="4.51" height="7.31"/>
									<rect x="321.75" y="285.76" class="st3" width="4.51" height="7.31"/>
									<rect x="303.63" y="282.91" class="st3" width="25.25" height="4.5"/>
									<path class="st3" d="M330.01,392.07c0,0.76-0.79,1.38-1.77,1.38h-23.59c-0.98,0-1.77-0.62-1.77-1.38l0,0
										c0-0.76,0.79-1.37,1.77-1.37h23.59C329.22,390.7,330.01,391.31,330.01,392.07L330.01,392.07z"/>
									<path class="st3" d="M330.01,389.48c0,0.76-0.79,1.37-1.77,1.37h-23.59c-0.98,0-1.77-0.62-1.77-1.37l0,0
										c0-0.76,0.79-1.38,1.77-1.38h23.59C329.22,388.1,330.01,388.72,330.01,389.48L330.01,389.48z"/>
									<path class="st3" d="M304.1,388.2c-0.7,0.18-1.21,0.68-1.21,1.29c0,0.61,0.53,1.12,1.24,1.29
										c-0.71,0.17-1.24,0.68-1.24,1.29c0,0.69,0.66,1.23,1.5,1.34l-5.14,2.76h0.12l-0.24,0.06v15.06h17.29V284.55h-12.79v2.86
										h2.01L304.1,388.2z"/>
								</g>
							</g>
							<rect x="309.18" y="287.41" class="st1" width="3.2" height="5.66"/>
						</g>
						<rect x="292.07" y="400.29" class="st3" width="48.18" height="17.76"/>
					</g>
					<g>
						<g>
							<rect x="380.01" y="285.98" class="st1" width="15.51" height="11.3"/>
							<g>
								<g>
									<polygon class="st2" points="377.39,293.08 375.6,388.72 400,388.72 398.3,293.07 									"/>
									<polygon class="st3" points="399.47,394.69 405.28,396.22 405.28,411.29 370.65,411.29 370.65,396.22 376.43,394.72 
																			"/>
									<polygon class="st4" points="405.17,396.16 399.47,393.1 376.43,393.12 370.77,396.16 									"/>
									<rect x="385.55" y="285.76" class="st3" width="4.51" height="7.31"/>
									<rect x="393.26" y="285.76" class="st3" width="4.51" height="7.31"/>
									<rect x="375.15" y="282.91" class="st3" width="25.25" height="4.5"/>
									<path class="st3" d="M401.53,392.07c0,0.76-0.79,1.38-1.77,1.38h-23.59c-0.98,0-1.77-0.62-1.77-1.38l0,0
										c0-0.76,0.79-1.37,1.77-1.37h23.59C400.74,390.7,401.53,391.31,401.53,392.07L401.53,392.07z"/>
									<path class="st3" d="M401.53,389.48c0,0.76-0.79,1.37-1.77,1.37h-23.59c-0.98,0-1.77-0.62-1.77-1.37l0,0
										c0-0.76,0.79-1.38,1.77-1.38h23.59C400.74,388.1,401.53,388.72,401.53,389.48L401.53,389.48z"/>
									<path class="st3" d="M375.61,388.2c-0.7,0.18-1.21,0.68-1.21,1.29c0,0.61,0.53,1.12,1.24,1.29
										c-0.71,0.17-1.24,0.68-1.24,1.29c0,0.69,0.66,1.23,1.5,1.34l-5.14,2.76h0.12l-0.24,0.06v15.06h17.29V284.55h-12.79v2.86
										h2.01L375.61,388.2z"/>
								</g>
							</g>
							<rect x="380.69" y="287.41" class="st1" width="3.2" height="5.66"/>
						</g>
						<rect x="363.59" y="400.29" class="st3" width="48.18" height="17.76"/>
					</g>
					<g>
						<g>
							<rect x="451.53" y="285.98" class="st1" width="15.51" height="11.3"/>
							<g>
								<g>
									<polygon class="st2" points="448.91,293.08 447.12,388.72 471.52,388.72 469.82,293.07 									"/>
									<polygon class="st3" points="470.99,394.69 476.8,396.22 476.8,411.29 442.17,411.29 442.17,396.22 447.95,394.72 
																			"/>
									<polygon class="st4" points="476.68,396.16 470.99,393.1 447.95,393.12 442.29,396.16 									"/>
									<rect x="457.07" y="285.76" class="st3" width="4.51" height="7.31"/>
									<rect x="464.78" y="285.76" class="st3" width="4.51" height="7.31"/>
									<rect x="446.66" y="282.91" class="st3" width="25.25" height="4.5"/>
									<path class="st3" d="M473.04,392.07c0,0.76-0.79,1.38-1.77,1.38h-23.59c-0.98,0-1.77-0.62-1.77-1.38l0,0
										c0-0.76,0.79-1.37,1.77-1.37h23.59C472.26,390.7,473.04,391.31,473.04,392.07L473.04,392.07z"/>
									<path class="st3" d="M473.04,389.48c0,0.76-0.79,1.37-1.77,1.37h-23.59c-0.98,0-1.77-0.62-1.77-1.37l0,0
										c0-0.76,0.79-1.38,1.77-1.38h23.59C472.26,388.1,473.04,388.72,473.04,389.48L473.04,389.48z"/>
									<path class="st3" d="M447.13,388.2c-0.7,0.18-1.21,0.68-1.21,1.29c0,0.61,0.53,1.12,1.24,1.29
										c-0.71,0.17-1.24,0.68-1.24,1.29c0,0.69,0.66,1.23,1.5,1.34l-5.14,2.76h0.12l-0.24,0.06v15.06h17.29V284.55h-12.79v2.86h2
										L447.13,388.2z"/>
								</g>
							</g>
							<rect x="452.21" y="287.41" class="st1" width="3.21" height="5.66"/>
						</g>
						<rect x="435.11" y="400.29" class="st3" width="48.18" height="17.76"/>
					</g>
					<g>
						<g>
							<rect x="523.04" y="285.98" class="st1" width="15.51" height="11.3"/>
							<g>
								<g>
									<polygon class="st2" points="520.43,293.08 518.64,388.72 543.04,388.72 541.33,293.07 									"/>
									<polygon class="st3" points="542.51,394.69 548.32,396.22 548.32,411.29 513.69,411.29 513.69,396.22 519.47,394.72 
																			"/>
									<polygon class="st4" points="548.2,396.16 542.51,393.1 519.47,393.12 513.8,396.16 									"/>
									<rect x="528.59" y="285.76" class="st3" width="4.51" height="7.31"/>
									<rect x="536.3" y="285.76" class="st3" width="4.51" height="7.31"/>
									<rect x="518.18" y="282.91" class="st3" width="25.25" height="4.5"/>
									<path class="st3" d="M544.56,392.07c0,0.76-0.79,1.38-1.77,1.38h-23.58c-0.98,0-1.77-0.62-1.77-1.38l0,0
										c0-0.76,0.79-1.37,1.77-1.37h23.58C543.77,390.7,544.56,391.31,544.56,392.07L544.56,392.07z"/>
									<path class="st3" d="M544.56,389.48c0,0.76-0.79,1.37-1.77,1.37h-23.58c-0.98,0-1.77-0.62-1.77-1.37l0,0
										c0-0.76,0.79-1.38,1.77-1.38h23.58C543.77,388.1,544.56,388.72,544.56,389.48L544.56,389.48z"/>
									<path class="st3" d="M518.65,388.2c-0.7,0.18-1.21,0.68-1.21,1.29c0,0.61,0.53,1.12,1.24,1.29
										c-0.71,0.17-1.24,0.68-1.24,1.29c0,0.69,0.66,1.23,1.5,1.34l-5.14,2.76h0.12l-0.24,0.06v15.06h17.29V284.55h-12.79v2.86
										h2.01L518.65,388.2z"/>
								</g>
							</g>
							<rect x="523.73" y="287.41" class="st1" width="3.2" height="5.66"/>
						</g>
						<rect x="506.62" y="400.29" class="st3" width="48.18" height="17.76"/>
					</g>
					<g>
						<rect x="339.96" y="303.48" class="st3" width="22.81" height="31.66"/>
						<rect x="342.12" y="305.88" class="st2" width="18.48" height="26.84"/>
					</g>
					<g>
						<rect x="339.96" y="348.99" class="st3" width="22.81" height="31.66"/>
						<rect x="342.12" y="351.39" class="st2" width="18.48" height="26.84"/>
					</g>
					<g>
						<rect x="412.14" y="303.48" class="st3" width="22.81" height="31.66"/>
						<rect x="414.3" y="305.88" class="st2" width="18.49" height="26.84"/>
					</g>
					<g>
						<rect x="412.14" y="348.99" class="st3" width="22.81" height="31.66"/>
						<rect x="414.3" y="351.39" class="st2" width="18.49" height="26.84"/>
					</g>
					<g>
						<rect x="484.32" y="303.48" class="st3" width="22.81" height="31.66"/>
						<rect x="486.48" y="305.88" class="st2" width="18.49" height="26.84"/>
					</g>
					<g>
						<rect x="484.32" y="348.99" class="st3" width="22.81" height="31.66"/>
						<rect x="486.48" y="351.39" class="st2" width="18.49" height="26.84"/>
					</g>
				</g>
				<g>
					<text transform="matrix(1 0 0 1 379.2949 241.8643)" class="st2 st6 st7">BANK</text>
				</g>
			</g>
			<polygon class="st3" points="541.06,244.62 435.85,188.64 437.45,185.82 542.66,241.79 			"/>
			<g>
				<defs>
					<path id="SVGID_1_" d="M525.33,234.48l-78.21-42.15c0,0-3.04-64.99,68.65-64.99c71.69,0,45.18,87.88,45.18,87.88
						S541.37,241.24,525.33,234.48z"/>
				</defs>
				<clipPath id="SVGID_2_">
					<use xlink:href="#SVGID_1_"  style="overflow:visible;"/>
				</clipPath>
				<g class="st8">
					<path class="st9" d="M543.85,187.6c2.24,23.3-14.84,44-38.14,46.24c-23.3,2.24-44-14.84-46.24-38.14
						c-2.24-23.3,14.84-44,38.14-46.24C520.92,147.22,541.62,164.3,543.85,187.6z"/>
					<path class="st9" d="M543.85,187.6c2.24,23.3-14.84,44-38.14,46.24c-23.3,2.24-44-14.84-46.24-38.14
						c-2.24-23.3,14.84-44,38.14-46.24C520.92,147.22,541.62,164.3,543.85,187.6z"/>
					<path class="st10" d="M537.18,188.24c1.89,19.61-12.49,37.04-32.11,38.92c-19.62,1.88-37.04-12.49-38.93-32.11
						c-1.88-19.61,12.49-37.04,32.11-38.93C517.87,154.25,535.3,168.62,537.18,188.24z"/>
					<g>
						<text transform="matrix(0.9954 -0.0956 0.0956 0.9954 487.2002 212.9368)" class="st9 st6 st11">$</text>
					</g>
					<path class="st12" d="M531.31,177.24c1.63,16.98-10.81,32.06-27.79,33.69c-16.98,1.63-32.06-10.81-33.69-27.79
						c-1.63-16.98,10.81-32.06,27.79-33.69C514.6,147.83,529.68,160.27,531.31,177.24z"/>
					<path class="st12" d="M491.14,205.1c0.34,3.57-2.27,6.73-5.83,7.07c-3.57,0.34-6.73-2.27-7.07-5.83
						c-0.34-3.56,2.27-6.73,5.83-7.07C487.63,198.92,490.79,201.53,491.14,205.1z"/>
				</g>
			</g>
		</g>
		<g class="st13">
			<path class="st14" d="M614.52,116.72c10.82,20.72,2.8,46.29-17.92,57.11c-20.72,10.82-46.29,2.79-57.11-17.92
				c-10.82-20.72-2.8-46.29,17.92-57.11C578.14,87.97,603.7,96,614.52,116.72z"/>
			<path class="st14" d="M614.52,116.72c10.82,20.72,2.8,46.29-17.92,57.11c-20.72,10.82-46.29,2.79-57.11-17.92
				c-10.82-20.72-2.8-46.29,17.92-57.11C578.14,87.97,603.7,96,614.52,116.72z"/>
			<path class="st15" d="M608.59,119.82c9.11,17.44,2.35,38.96-15.09,48.07c-17.44,9.11-38.97,2.35-48.07-15.09
				c-9.11-17.44-2.35-38.97,15.09-48.07C577.96,95.62,599.48,102.37,608.59,119.82z"/>
			<g class="st16">
				<text transform="matrix(0.8864 -0.4629 0.4629 0.8864 571.6136 161.5446)" class="st9 st6 st17">$</text>
			</g>
			<path class="st18" d="M599.03,111.85c7.88,15.1,2.04,33.73-13.06,41.61c-15.1,7.88-33.73,2.04-41.61-13.06
				c-7.88-15.1-2.04-33.73,13.06-41.61C572.51,90.91,591.14,96.76,599.03,111.85z"/>
			<path class="st18" d="M572.32,152.71c1.65,3.17,0.43,7.08-2.74,8.74c-3.17,1.65-7.08,0.43-8.74-2.74
				c-1.65-3.17-0.42-7.08,2.74-8.74C566.75,148.31,570.66,149.54,572.32,152.71z"/>
		</g>
		<g class="st13">
			<path class="st14" d="M537.5,93.25c-8.35,21.83-32.81,32.77-54.65,24.42c-21.83-8.35-32.76-32.81-24.42-54.65
				c8.35-21.83,32.81-32.77,54.64-24.42C534.91,46.95,545.84,71.42,537.5,93.25z"/>
			<path class="st14" d="M537.5,93.25c-8.35,21.83-32.81,32.77-54.65,24.42c-21.83-8.35-32.76-32.81-24.42-54.65
				c8.35-21.83,32.81-32.77,54.64-24.42C534.91,46.95,545.84,71.42,537.5,93.25z"/>
			<path class="st15" d="M531.25,90.86c-7.03,18.38-27.62,27.58-46,20.55c-18.38-7.03-27.58-27.62-20.56-46
				c7.03-18.38,27.62-27.58,46-20.55C529.07,51.88,538.27,72.48,531.25,90.86z"/>
			<g class="st16">
				<text transform="matrix(0.9341 0.3571 -0.3571 0.9341 475.5563 90.7762)" class="st9 st6 st19">$</text>
			</g>
			<path class="st18" d="M530.87,78.42c-6.08,15.91-23.91,23.87-39.81,17.79c-15.91-6.08-23.87-23.91-17.79-39.82
				c6.08-15.91,23.91-23.87,39.82-17.79C528.99,44.68,536.95,62.51,530.87,78.42z"/>
			<path class="st18" d="M482.57,85.49c-1.28,3.34-5.02,5.01-8.36,3.74c-3.34-1.28-5.01-5.02-3.73-8.36
				c1.28-3.34,5.02-5.01,8.36-3.73C482.18,78.4,483.85,82.15,482.57,85.49z"/>
		</g>
	</g>
</g>
</svg>
