<?xml version="1.0" encoding="utf-8"?>
<!-- Generator: Adobe Illustrator 23.0.1, SVG Export Plug-In . SVG Version: 6.00 Build 0)  -->
<svg version="1.1" id="bedroom" xmlns="http://www.w3.org/2000/svg" xmlns:xlink="http://www.w3.org/1999/xlink" x="0px" y="0px"
	 viewBox="0 0 800 450" style="enable-background:new 0 0 800 450;" xml:space="preserve">
<style type="text/css">
	.st0{fill:#FFBF59;}
	.st1{fill:#FD9533;}
	.st2{opacity:0.3;fill:#FFFFFF;}
	.st3{opacity:0.2;fill:#CE0000;}
	.st4{fill:#D14F46;}
	.st5{opacity:0.2;fill:#590800;}
	.st6{opacity:0.1;fill:#FFFFFF;}
	.st7{fill:#FFFFFF;}
	.st8{fill:#B9EDDA;}
	.st9{opacity:0.08;fill:#CE0000;}
	.st10{opacity:0.5;fill:#8D0000;}
	.st11{opacity:0.5;fill:#9A0400;}
	.st12{fill:#590800;}
	.st13{opacity:0.6;fill:#C94D44;}
	.st14{fill:#7C441D;}
	.st15{fill:#C94D44;}
	.st16{fill:#FFF594;}
	.st17{opacity:0.27;fill:#590800;}
	.st18{fill:#9B5729;}
	.st19{fill:#BC7442;}
	.st20{fill:#5B1800;}
	.st21{opacity:0.24;fill:#590800;}
	.st22{filter:url(#Adobe_OpacityMaskFilter);}
	.st23{filter:url(#Adobe_OpacityMaskFilter_1_);}
	.st24{mask:url(#SVGID_1_);fill:url(#SVGID_2_);}
	.st25{opacity:0.5;fill:url(#SVGID_3_);}
	.st26{opacity:0.04;fill:#590800;}
	.st27{fill:#BDFFE7;}
	.st28{fill:#B0CBFF;}
	.st29{fill:#FFAC73;}
	.st30{opacity:0.5;fill:#860400;}
	.st31{fill:#683A1B;}
	.st32{fill:#5B2500;}
	.st33{fill:#BC7846;}
	.st34{opacity:0.42;fill:#562300;}
	.st35{fill:#CC8E5A;}
	.st36{opacity:0.2;fill:#CC8E5A;}
	.st37{opacity:0.31;fill:#541C00;}
	.st38{filter:url(#Adobe_OpacityMaskFilter_2_);}
	.st39{filter:url(#Adobe_OpacityMaskFilter_3_);}
	.st40{mask:url(#SVGID_4_);fill:url(#SVGID_5_);}
	.st41{opacity:0.42;fill:url(#SVGID_6_);}
	.st42{opacity:0.18;fill:#590800;}
	.st43{opacity:0.63;fill:#FFFFFF;}
	.st44{fill:#72291B;}
	.st45{fill:#672100;}
	.st46{fill:#FFBE92;}
	.st47{fill:#E3784E;}
	.st48{fill:#FFD5B8;}
	.st49{opacity:0.46;fill:#440300;}
	.st50{opacity:0.2;fill:#003744;}
	.st51{fill:#4E91A8;}
	.st52{opacity:0.3;fill:#003744;}
	.st53{opacity:0.2;fill:#A82329;}
	.st54{filter:url(#Adobe_OpacityMaskFilter_4_);}
	.st55{filter:url(#Adobe_OpacityMaskFilter_5_);}
	.st56{mask:url(#SVGID_7_);fill:url(#SVGID_8_);}
	.st57{opacity:0.61;fill:url(#SVGID_9_);}
	.st58{opacity:0.3;fill:#0082BC;}
	.st59{opacity:0.2;fill:#004FFF;}
	.st60{fill:#00A1CC;}
	.st61{opacity:0.32;fill:#770300;}
	.st62{fill:#D6C822;}
	.st63{opacity:0.36;fill:#E7D39C;}
	.st64{fill:#9BAE05;}
	.st65{opacity:0.5;fill:#FFFFFF;}
	.st66{fill:#443551;}
	.st67{fill:#FFF9BD;}
	.st68{fill:#F4E67D;}
	.st69{fill:#F2CE7E;}
	.st70{filter:url(#Adobe_OpacityMaskFilter_6_);}
	.st71{filter:url(#Adobe_OpacityMaskFilter_7_);}
	.st72{mask:url(#SVGID_10_);fill:url(#SVGID_11_);}
	.st73{fill:url(#SVGID_12_);}
	.st74{fill:#FFFDF0;}
	.st75{opacity:0.1;fill:#440200;}
	.st76{fill:#668D12;}
</style>
<g>
	<polygon class="st0" points="0,42 456.51,97 468.43,277.99 0,374 	"/>
	<polygon class="st1" points="800,372.67 800,43.33 456.51,97 468.43,277.99 	"/>
	<path class="st2" d="M463.61,103.95l8.05,165.71l320.67,68.65V58L463.61,103.95z M789.67,330.67l-314.32-62.71L468.43,110
		l319.9-48.64L789.67,330.67z"/>
	<path class="st2" d="M444.5,103L17.52,57.34l-5.85,280.98l443.43-70.54L444.5,103z M17.52,334.57L29.2,61.75l409.59,43.8
		l12.72,158.21L17.52,334.57z"/>
</g>
<polygon class="st3" points="472.73,208 485.31,210.13 494.95,233 676.75,208.91 732.41,276.47 764.73,278.68 800,348 
	516.68,290.28 455.1,250.85 453.17,226.91 "/>
<g>
	<polygon class="st4" points="0,364.67 468.43,277.99 800,372.67 800,450 0,450 	"/>
	<path class="st5" d="M800,397.79l-14.38,6.59l-69.75-20.81l50.61-20.47l-3.33-0.95l-51.86,20.06l-52.96-15.8l48.74-20.27
		l-1.94-0.55l-49.21,20.11l-47.06-14.04l52.82-18.48l-2.33-0.67l-53.14,18.35l-45.17-13.48l53.72-17.6l-2.74-0.78l-54.06,17.47
		l-50.23-14.98l53.53-16.98l-3.08-0.88l-53.92,16.82l-45.74-13.65l56.19-15.59l-3.2-0.91l-57.2,15.25l-48.97-14.61l-2.44,0.5
		l48.91,14.77l-92.18,24.57l-55-19.21l-3.61,0.74l54.2,19.64l-100.99,26.92l-51.73-26.37l-2.83,0.58l51.78,26.53l-112.44,29.97
		l-46.58-34.53l-5.76,1.18l47.23,34.71L0,426.64V434l139.72-38.76l37.2,27.33L89,450h13.5l78.05-24.76l31.33,23.02L206.5,450h7.75
		h3.08h3.17l-0.97-0.72l126.19-41.35l38.3,19.62L319,450h8.67l59.53-20.82L427.83,450H433l-42.87-21.85l117.32-41.04l50.88,18.44
		L449.52,450h7.82l104.13-43.31l44.67,16.19L536,450h15.67l61.11-24.72L681,450h5h10.5h4.5l-2.53-0.88l91.05-40.91l10.48,3.17v-2.71
		l-6.91-2.06l6.91-3.1V397.79z M603.12,351.91l-92.02,31.77l-44.24-15.45l91.27-29.91L603.12,351.91z M555.05,337.39l-91.68,29.62
		l-47.23-16.49l88.96-28.22L555.05,337.39z M457.34,368.96l-112.21,36.25l-38.91-19.83l104.75-33.23L457.34,368.96z M456.02,307.48
		l45.6,13.77l-89.41,27.9l-47.1-16.45L456.02,307.48z M360.68,333.93l46.41,16.82l-104.71,32.67l-42.32-21.57L360.68,333.93z
		 M144.74,393.84l112.56-31.23l42.3,21.68l-118.05,36.83L144.74,393.84z M216.25,446.85l-31.11-23.06l118.31-37.53l38.8,19.88
		L216.25,446.85z M386.96,426.54l-38.36-19.55l112.2-36.77L504.38,386L386.96,426.54z M514.18,384.76l91.6-32.04l47.06,14.22
		l-87.43,35.72L514.18,384.76z M568.55,403.74l86.74-36.08l52.55,15.87l-93.54,36.18L568.55,403.74z M692.49,447.03l-71.64-25.02
		l91.63-37.07l69.64,21.04L692.49,447.03z"/>
	<polygon class="st6" points="558.32,405.55 507.45,387.11 390.13,428.15 433,450 449.52,450 	"/>
	<polygon class="st6" points="181.54,421.12 144.74,393.84 257.29,362.61 299.59,384.29 	"/>
	<polygon class="st6" points="514.69,291.2 458.5,306.79 504.24,320.43 558.16,303.61 	"/>
	<polygon class="st6" points="707.06,346.13 658.32,366.4 711.28,382.2 763.14,362.14 	"/>
</g>
<g>
	<polygon class="st7" points="800,348 467.94,273.28 0,352.67 0,374 468.43,277.99 800,372.67 	"/>
	<polygon class="st8" points="800,354.5 467.33,274.83 0,358 0,352.67 467.94,273.28 800,348 	"/>
</g>
<path class="st9" d="M413.61,91.83l44.9,35.42c0,0,59.94-3.84,169.47,31.95C737.5,195,800,298.5,800,298.5V43.33L456.51,97
	L413.61,91.83z"/>
<polygon class="st10" points="800,372.67 468.43,277.99 384.14,295.26 614.33,377.68 247.05,436.9 190,335.06 0,374 0,450 800,450 
	"/>
<polygon class="st11" points="282.51,359.29 388.62,450 710.73,450 789.67,370.14 670.7,336.02 670.66,340.5 437.08,443.5 "/>
<g>
	<polygon class="st0" points="506,421.12 614.13,376 700,400.5 603.12,450 575.14,450 	"/>
	<polygon class="st12" points="506,421.12 506,423.36 568.55,450 575.14,450 	"/>
	<polygon class="st12" points="700,400.5 603.12,450 607.63,450 699.25,403.25 	"/>
	<path class="st13" d="M616.5,380.25l-99.25,40.87l69,25.73L686.5,400.5L616.5,380.25z M522.13,421.13l94.5-39.38l64.5,18.75
		l-93.39,43.18L522.13,421.13z"/>
	<path class="st13" d="M590.27,399.47l-26.77,25.59l55.75-7.61l16.24-24.44L590.27,399.47z M617.26,416.61l-50.13,6.84l24.07-23.01
		l41.93-5.43L617.26,416.61z"/>
</g>
<g>
	<g>
		<polygon class="st14" points="662.69,115.58 658.44,178.91 585.1,178.91 583.27,121.58 		"/>
		<polygon class="st15" points="657.05,120.08 655.36,174.41 586.69,175.58 585.97,125.45 		"/>
		<polygon class="st16" points="634.54,135.44 633.81,159.06 604.92,159.06 604.92,137.67 		"/>
	</g>
	<g>
		<polygon class="st14" points="573.54,123 571.19,158 530.66,158 529.65,126.31 		"/>
		<polygon class="st0" points="570.42,125.48 569.49,155.51 531.54,156.15 531.14,128.45 		"/>
		<polygon class="st16" points="557.99,133.97 557.58,147.02 541.61,147.02 541.61,135.21 		"/>
	</g>
	<polygon class="st17" points="662.69,115.58 664.46,118.71 662.69,182.58 590.19,181.71 585.1,178.91 658.44,178.91 	"/>
	<polygon class="st17" points="573.54,123 574.81,124.87 573.54,160 535.75,159.31 530.66,158 571.19,158 	"/>
</g>
<g>
	<g>
		<polygon class="st18" points="403.22,249.49 403.2,330.77 459.14,345.4 461.48,256.95 		"/>
		<polygon class="st14" points="406.09,252.31 406.07,327.25 456.28,340.38 456.28,259.13 		"/>
		<polygon class="st19" points="406.07,288.99 448.41,286.4 456.28,286.4 456.28,298.4 		"/>
		<polygon class="st14" points="511.47,252.45 436.16,247.29 403.22,249.49 461.48,256.95 459.14,345.4 505.57,330.27 		"/>
		<polygon class="st20" points="461.48,256.95 511.47,252.45 505.57,330.27 459.14,345.4 		"/>
		<polygon class="st18" points="456.28,298.4 404.24,288.64 404.24,290.37 456.28,304.37 		"/>
		<polygon class="st19" points="406.07,327.25 448.41,324.19 456.28,325.04 456.28,340.38 		"/>
		<polygon class="st21" points="406.09,252.31 449.54,270.25 450.58,286.4 456.28,286.4 456.28,259.13 		"/>
		<polygon class="st21" points="406.67,291.02 456.28,304.37 456.28,325.04 448.41,324.19 447.15,308.88 		"/>
		<polygon class="st12" points="504.32,330.68 503.47,335.77 497.57,337.52 496.49,334.85 462.55,346.75 460.21,349.62 
			454.83,349.62 452.9,345.4 411.14,336.18 408.86,338.47 404.75,337.44 404.24,331.04 459.14,345.4 		"/>
	</g>
	<g>
		<path class="st20" d="M452.01,228.79l1.36,16.72l-4.89,6.83c0,0,2.98,0.21,6.07,0.21c3.73,0,6.07-0.63,6.07-0.63l-4.9-6.41
			l0.54-16.72H452.01z"/>
		<path class="st7" d="M478.87,228.79c0,0-12.32,1.65-24.93,1.64c-7.7-0.01-14.59-0.56-19.03-1.02c-3.26-0.33-5.21-0.62-5.21-0.62
			l8.14-24.07l28.82-2.57l4.25-0.38L478.87,228.79z"/>
		<defs>
			<filter id="Adobe_OpacityMaskFilter" filterUnits="userSpaceOnUse" x="429.69" y="202.7" width="46.83" height="27.39">
				<feFlood  style="flood-color:white;flood-opacity:1" result="back"/>
				<feBlend  in="SourceGraphic" in2="back" mode="normal"/>
			</filter>
		</defs>
		<mask maskUnits="userSpaceOnUse" x="429.69" y="202.7" width="46.83" height="27.39" id="SVGID_1_">
			<g class="st22">
				<defs>
					<filter id="Adobe_OpacityMaskFilter_1_" filterUnits="userSpaceOnUse" x="429.69" y="202.7" width="46.83" height="27.39">
						<feFlood  style="flood-color:white;flood-opacity:1" result="back"/>
						<feBlend  in="SourceGraphic" in2="back" mode="normal"/>
					</filter>
				</defs>
				<mask maskUnits="userSpaceOnUse" x="429.69" y="202.7" width="46.83" height="27.39" id="SVGID_1_">
				</mask>
				<linearGradient id="SVGID_2_" gradientUnits="userSpaceOnUse" x1="429.6932" y1="216.3912" x2="476.5241" y2="216.3912">
					<stop  offset="0" style="stop-color:#FFFFFF"/>
					<stop  offset="1" style="stop-color:#000000"/>
				</linearGradient>
				<path class="st24" d="M437.83,204.73l33.27-2.03l5.43,26.34c0,0-8.49,1.05-22.24,1.05c-15.3,0-24.59-1.29-24.59-1.29
					L437.83,204.73z"/>
			</g>
		</mask>
		<linearGradient id="SVGID_3_" gradientUnits="userSpaceOnUse" x1="429.6932" y1="216.3912" x2="476.5241" y2="216.3912">
			<stop  offset="0" style="stop-color:#FFFFFF"/>
			<stop  offset="1" style="stop-color:#000000"/>
		</linearGradient>
		<path class="st25" d="M437.83,204.73l33.27-2.03l5.43,26.34c0,0-8.49,1.05-22.24,1.05c-15.3,0-24.59-1.29-24.59-1.29
			L437.83,204.73z"/>
		<path class="st15" d="M430.99,224.95l0.85-2.51c0,0,10.77,1.26,21.4,1.26c12.16,0,23.95-0.58,23.95-0.58l0.73,2.48
			c0,0-13.3,1.32-24.75,1.32C443.83,226.91,430.99,224.95,430.99,224.95z"/>
		<path class="st15" d="M432.83,219.51c0,0,12.91,0.97,20.71,1.09c11.2,0.18,22.59-1.09,22.59-1.09l0.39,1.34
			c0,0-14.6,0.89-23.17,0.8c-8.18-0.09-20.69-1.66-20.69-1.66L432.83,219.51z"/>
		<path class="st26" d="M478.87,228.79c0,0-12.32,1.65-24.93,1.64c-7.7-0.01-14.59-0.56-19.03-1.02c1.73-0.16,17.46-1.87,24.6-10.45
			c6.05-7.28,7.01-14.3,7.14-16.81l4.25-0.38L478.87,228.79z"/>
	</g>
</g>
<g>
	<g>
		<path class="st20" d="M43.24,132.91l4,174.34l89.44-13.65l7.96-160.05L43.24,132.91z M134.5,290.28l-83.82,10.5l-3.71-161.51
			l94.03-1.36L134.5,290.28z"/>
		<polygon class="st27" points="134.5,290.28 141,137.91 46.97,139.27 50.68,300.78 		"/>
		<path class="st28" d="M135.46,267.69c0,0-25.46,3.35-27.13,4.83c-1.67,1.48-4.58,21.62-4.58,21.62l30.75-3.85L135.46,267.69z"/>
		<polygon class="st29" points="134.83,282.49 103.75,287.75 103.75,294.13 134.5,290.28 		"/>
		<polygon class="st7" points="140.58,147.68 48.23,193.99 49.55,251.65 138.65,193.01 		"/>
		<polygon class="st7" points="137.86,211.42 50.15,277.99 50.68,300.78 137.04,230.67 		"/>
		<polygon class="st5" points="43.24,132.91 38,140 40.67,308.5 127.25,297.75 132.26,293.04 47.24,307.25 		"/>
	</g>
	<polygon class="st30" points="169.45,367.48 44.33,411.33 0,386.26 0,374 44.28,364.92 44.99,373.73 78.31,387.42 	"/>
	<polygon class="st3" points="37.41,304.55 0,348.27 0,374 44.28,364.92 39.85,309.48 37.41,308.6 	"/>
	<g>
		<g>
			<polygon class="st31" points="173.02,299.99 169.45,367.48 78.31,387.42 70.82,313.84 			"/>
			<polygon class="st32" points="39.53,305.47 44.99,373.73 78.31,387.42 70.82,313.84 			"/>
			<path class="st32" d="M74,317.59l4.31,30.14l89.56-15.31l2.44-28.12L74,317.59z M165.54,332.12l-85.01,14.53l-4.09-28.6
				l91.32-11.5L165.54,332.12z"/>
			<path class="st32" d="M79.44,351.48l2.75,29.15l84.65-17l1.13-27.7L79.44,351.48z M164.26,363.31L84.67,379.3l-2.48-26.25
				l83.13-15.78L164.26,363.31z"/>
			<polygon class="st33" points="140.15,293.21 177.42,300.9 72.92,316.02 37.41,304.55 			"/>
			<polygon class="st34" points="108.07,317.26 101.14,320.67 101.14,324.3 128.61,318.73 134.6,315.68 108.07,319.99 			"/>
			<polygon class="st35" points="108.07,317.26 108.07,320.23 136.42,315.37 136.42,313.68 			"/>
			<polygon class="st34" points="113.64,350.83 108.07,353.67 108.07,357.92 131.37,352.59 136.42,348.27 			"/>
			<polygon class="st35" points="113.64,349.88 113.64,353.67 138.72,347.72 138.72,346.13 			"/>
			<polygon class="st31" points="177.42,300.9 176.66,303.3 73.35,321.52 37.41,308.6 37.41,304.55 72.92,316.02 			"/>
			<polygon class="st36" points="176.66,303.3 177.42,300.9 72.92,316.02 73.35,321.52 			"/>
			<polygon class="st37" points="172.81,303.98 172.49,310.01 77.58,380.26 43.67,357.19 39.85,309.48 73.35,321.52 			"/>
		</g>
		<defs>
			<filter id="Adobe_OpacityMaskFilter_2_" filterUnits="userSpaceOnUse" x="86.17" y="293.21" width="91.26" height="16.92">
				<feFlood  style="flood-color:white;flood-opacity:1" result="back"/>
				<feBlend  in="SourceGraphic" in2="back" mode="normal"/>
			</filter>
		</defs>
		<mask maskUnits="userSpaceOnUse" x="86.17" y="293.21" width="91.26" height="16.92" id="SVGID_4_">
			<g class="st38">
				<defs>
					<filter id="Adobe_OpacityMaskFilter_3_" filterUnits="userSpaceOnUse" x="86.17" y="293.21" width="91.26" height="16.92">
						<feFlood  style="flood-color:white;flood-opacity:1" result="back"/>
						<feBlend  in="SourceGraphic" in2="back" mode="normal"/>
					</filter>
				</defs>
				<mask maskUnits="userSpaceOnUse" x="86.17" y="293.21" width="91.26" height="16.92" id="SVGID_4_">
				</mask>
				<linearGradient id="SVGID_5_" gradientUnits="userSpaceOnUse" x1="115.62" y1="277.7728" x2="147.9721" y2="322.3018">
					<stop  offset="0.2129" style="stop-color:#000000"/>
					<stop  offset="1" style="stop-color:#FFFFFF"/>
				</linearGradient>
				<polygon class="st40" points="177.42,300.9 113.64,310.13 86.17,299.17 140.15,293.21 				"/>
			</g>
		</mask>
		<linearGradient id="SVGID_6_" gradientUnits="userSpaceOnUse" x1="115.62" y1="277.7728" x2="147.9721" y2="322.3018">
			<stop  offset="0.2129" style="stop-color:#000000"/>
			<stop  offset="1" style="stop-color:#FFFFFF"/>
		</linearGradient>
		<polygon class="st41" points="177.42,300.9 113.64,310.13 86.17,299.17 140.15,293.21 		"/>
	</g>
</g>
<g>
	<polygon class="st12" points="516.84,296.68 514.47,201.16 676.75,208.91 670.66,338.32 	"/>
	<polygon class="st16" points="520.33,296.68 518.21,206.32 662.77,214.74 658.53,338.72 	"/>
	<polygon class="st42" points="650.83,336.37 657.15,220.01 662.77,214.74 658.53,338.72 	"/>
	<polygon class="st43" points="657.15,220.01 518.21,208.42 518.21,206.32 662.77,214.74 	"/>
	<polygon class="st35" points="280.46,344.65 282.51,359.29 437.08,443.5 439.3,420.24 	"/>
	<polygon class="st44" points="437.08,443.5 670.66,340.5 670.76,328.38 439.3,420.24 	"/>
	<polygon class="st45" points="520.91,284.36 280.46,344.7 439.3,420.29 670.76,328.38 	"/>
	<polygon class="st46" points="671.95,311 671.35,323.69 646.88,332.56 448.87,404.36 440.67,407.33 287.7,342.88 283.37,312.23 
		284.75,312.01 298.59,309.78 516.3,274.74 	"/>
	<polygon class="st29" points="283.37,312.23 441.5,382 440.67,407.33 287.7,342.88 	"/>
	<polygon class="st47" points="671.95,311 441.5,382 440.67,407.33 671.35,323.69 	"/>
	<path class="st48" d="M284.75,312.01c0,0,149.5,65.85,156.75,65.67c7.25-0.18,217.85-62.8,217.85-62.8s-211.47,63.8-214.51,68.54
		c-2.18,3.4-3.94,17.08-3.94,17.08s0.33-12.98-3.14-17.88C434.25,377.68,284.75,312.01,284.75,312.01z"/>
	<path class="st49" d="M452.6,429.83v-14.82l-7.45-9.3c0,0,9.35-18.6,4.18-25.38c-6.43-8.43-164.58-68.32-164.58-68.32l13.84-2.23
		l348.29,22.78l20.89,1.37L452.6,429.83z"/>
	<path class="st28" d="M674.75,330.67c-0.14,0.25-7.84,3.68-20.29,9.1c-9.65,4.2-22.14,9.58-36.18,15.6
		c-0.19,0.08-0.38,0.16-0.57,0.24c-45.11,18.98-119.32,50.19-149.41,62.83c-0.05,0.02-0.11,0.05-0.17,0.07
		c-8.19,3.29-13.01,5.1-13.03,4.82c0,0-0.01-0.21-0.03-0.6c0-0.07,0-0.13-0.01-0.2c0-0.17-0.01-0.37-0.02-0.58
		c0-0.13-0.01-0.26-0.02-0.4c-0.01-0.18-0.01-0.37-0.03-0.57c-0.02-0.46-0.05-0.95-0.08-1.49c-0.01-0.18-0.02-0.36-0.03-0.54
		c-0.51-9.96-1.89-33.86-3.63-40.11c-0.02-0.08-0.03-0.13-0.04-0.16c-0.12-0.43-0.25-0.77-0.38-1c-0.14-0.26-1.51-0.97-3.88-2.07
		c-0.01-0.01-0.02-0.01-0.03-0.01c-4.52-2.09-12.69-5.55-23.02-9.8c-8.1-3.34-17.54-7.16-27.59-11.21
		c-44.74-18.01-101.73-40.32-108.2-42.85c-0.4-0.16-0.61-0.24-0.61-0.24s0.08-0.18,0.22-0.5c0.73-1.61,3.14-6.76,5.33-9.54
		l0.13-0.15c0.45-0.56,0.9-1.02,1.32-1.31c1.87-1.31,95.64-16.19,160.6-26.05l1.43-0.22l3.39-0.51l8.22-1.24l1.59-0.24l3.13-0.47
		l3.27-0.49c0.93-0.14,1.85-0.28,2.76-0.41c21.11-3.13,35.73-5.19,37.17-5.12c2.89,0.13,34.33,4.53,68.25,10.46h0.02
		c21.31,3.72,43.6,8.05,60.4,12.29c9.14,2.31,16.66,4.6,21.52,6.75c0.15,0.07,0.31,0.21,0.48,0.43
		C669.95,299.33,675.46,329.4,674.75,330.67z"/>
	<path class="st50" d="M674.75,330.67C674,332,455.23,425.2,455.1,423.33c0,0-1.85-41.33-4.27-45.65
		c-1.59-2.85-151.97-61.74-162.72-65.94l-0.39-0.74c0.73-1.61,3.14-6.76,5.33-9.54l0.13-0.15c0,0,23.49,16.19,48.15,27
		c24.67,10.81,109,40.52,113.77,42.52c4.76,2,19.9,1.84,60.5-11.66c40.61-13.51,150.65-64.42,150.65-64.42l0.48,0.43
		C669.95,299.33,675.46,329.4,674.75,330.67z"/>
	<path class="st50" d="M328.24,293.91c0,0,157.76,60.59,161.09,67.76c3.33,7.17,6.88,45.36,6.88,45.36l88.31-37.23
		c0,0-6.26-26.83-15.97-31.49C558.83,333.67,328.24,293.91,328.24,293.91z"/>
	<path class="st51" d="M575.08,349.72c-0.35,8.85-2.13,17.36-2.46,17.94c-0.62,1.09-71.83,27.29-74.45,26.41
		c-2.63-0.87-4.9-27.01-5.53-34.29c-0.64-7.28-164.4-65.87-164.4-65.87s0.07-1.8,1.88-3.61c0.43-0.44,0.97-0.88,1.63-1.3
		c3.4-2.14,71.25-11.77,76.25-11.01c5,0.76,154.33,46.01,162.67,52.68C574.58,333.79,575.39,341.89,575.08,349.72z"/>
	<path class="st52" d="M575.08,349.72c-0.35,8.85-2.13,17.36-2.46,17.94c-0.62,1.09-71.83,27.29-74.45,26.41
		c-2.63-0.87-4.9-27.01-5.53-34.29c-0.64-7.28-164.4-65.87-164.4-65.87s0.07-1.8,1.88-3.61l1.63-1.3c0,0,159.25,60,168.25,69
		C508.02,366.02,563.21,352.7,575.08,349.72z"/>
	<path class="st7" d="M586.25,362.61c-2.25,1.89-15.35,5.89-15.35,5.89s0.35-25.46-4.15-32.48c-3.07-4.79-84.9-29.22-136.56-44.26
		c-0.04-0.01-0.07-0.02-0.1-0.02l-0.01-0.01c-24-6.98-41.46-11.93-41.46-11.93s21.88-6.93,26.05-7.28
		c3.17-0.27,96.49,27.03,143.49,41.95c14.75,4.69,24.94,8.15,26.34,9.17C590.38,327.9,588.5,360.73,586.25,362.61z"/>
	<path class="st5" d="M430.08,291.73c0,0,0.04,0.01,0.11,0.03c-0.04-0.01-0.07-0.02-0.1-0.02L430.08,291.73z"/>
	<path class="st52" d="M586.25,362.61c-2.25,1.89-15.35,5.89-15.35,5.89s0.35-25.46-4.15-32.48c-3.07-4.79-84.9-29.22-136.56-44.26
		c3,0.83,67.23,18.57,88.02,21.74c21.29,3.25,39.95,0.97,39.95,0.97c14.75,4.69,24.94,8.15,26.34,9.17
		C590.38,327.9,588.5,360.73,586.25,362.61z"/>
	<path class="st50" d="M666.25,294.75l-28.06,12.81c0,0-64.69-7.56-78.29-11.75c-13.6-4.19-84.7-23.55-84.7-23.55l3.69-1.89
		c21.11-3.13,35.73-5.19,37.17-5.12C521.76,265.51,638.19,282.33,666.25,294.75z"/>
	<polygon class="st53" points="580.51,220.01 592.99,228.85 634.25,230.67 639.9,223.7 671.95,294.75 660.6,292.58 638.16,286.4 
		556.31,238.1 	"/>
	<defs>
		<filter id="Adobe_OpacityMaskFilter_4_" filterUnits="userSpaceOnUse" x="280.46" y="311.5" width="68.04" height="81.72">
			<feFlood  style="flood-color:white;flood-opacity:1" result="back"/>
			<feBlend  in="SourceGraphic" in2="back" mode="normal"/>
		</filter>
	</defs>
	<mask maskUnits="userSpaceOnUse" x="280.46" y="311.5" width="68.04" height="81.72" id="SVGID_7_">
		<g class="st54">
			<defs>
				<filter id="Adobe_OpacityMaskFilter_5_" filterUnits="userSpaceOnUse" x="280.46" y="311.5" width="68.04" height="81.72">
					<feFlood  style="flood-color:white;flood-opacity:1" result="back"/>
					<feBlend  in="SourceGraphic" in2="back" mode="normal"/>
				</filter>
			</defs>
			<mask maskUnits="userSpaceOnUse" x="280.46" y="311.5" width="68.04" height="81.72" id="SVGID_7_">
			</mask>
			<linearGradient id="SVGID_8_" gradientUnits="userSpaceOnUse" x1="285.9468" y1="310.362" x2="345.6725" y2="392.5674">
				<stop  offset="0" style="stop-color:#FFFFFF"/>
				<stop  offset="1" style="stop-color:#000000"/>
			</linearGradient>
			<polygon class="st56" points="287.5,311.5 283.37,312.23 287.7,342.88 280.46,344.7 282.51,359.29 344.78,393.22 340.75,372.63 
				348.5,368.5 342.24,334.18 			"/>
		</g>
	</mask>
	<linearGradient id="SVGID_9_" gradientUnits="userSpaceOnUse" x1="285.9468" y1="310.362" x2="345.6725" y2="392.5674">
		<stop  offset="0" style="stop-color:#FFFFFF"/>
		<stop  offset="1" style="stop-color:#000000"/>
	</linearGradient>
	<polygon class="st57" points="287.5,311.5 283.37,312.23 287.7,342.88 280.46,344.7 282.51,359.29 344.78,393.22 340.75,372.63 
		348.5,368.5 342.24,334.18 	"/>
	<path class="st58" d="M656.46,291.49v47.48l0,0c0,0-16.73,7.38-38.18,16.4c-0.19,0.08-0.38,0.16-0.57,0.24
		c-45.11,18.98-119.32,50.19-149.41,62.83c-0.05,0.02-0.11,0.05-0.17,0.07c-8.19,3.29-13.01,5.1-13.03,4.82c0,0-0.01-0.21-0.03-0.6
		c0-0.07,0-0.13-0.01-0.2c0-0.17-0.01-0.37-0.02-0.58c0-0.13-0.01-0.26-0.02-0.4c-0.01-0.18-0.01-0.37-0.03-0.57
		c-0.02-0.46-0.05-0.95-0.08-1.49c-0.01-0.18-0.02-0.36-0.03-0.54c-0.51-9.96-1.89-33.86-3.63-40.11c-0.02-0.08-0.03-0.13-0.04-0.16
		c-0.12-0.43-0.25-0.77-0.38-1c-0.14-0.26-1.51-0.97-3.88-2.07c-0.01-0.01-0.02-0.01-0.03-0.01c-5.11-2.71-14.05-6.36-23.02-9.8
		c-13.88-5.32-27.59-11.21-27.59-11.21s-0.15,0.65,0,0c0.39-1.71,1.18-4.88,1.81-5.44c0.88-0.77,46.09-11.88,46.09-11.88
		s0.62-4.87,2.79-4.99c2.17-0.11,79.89-35.94,79.89-35.94l-71.79-22.39l1.43-0.22l3.39-0.51l8.22-1.24l1.59-0.24l3.13-0.47
		l3.27-0.49l108.18,4.93h0.02l22.47,1.02L644.73,288L656.46,291.49z"/>
	<g>
		<path class="st7" d="M578.5,276.81c-2.44,6.87-17.59,8.13-24,6.86c-0.48-0.1-0.91-0.2-1.28-0.32c-1.61-0.52-4.89-1.18-9.22-1.91
			l-2.14-0.35c-3.45-0.55-7.43-1.15-11.68-1.76c-1.37-0.2-2.77-0.4-4.19-0.6c-3.73-0.53-7.6-1.07-11.46-1.6
			c-0.71-0.1-1.42-0.2-2.14-0.31c-3.9-0.53-7.76-1.08-11.43-1.59c-1.23-0.18-2.43-0.35-3.61-0.52c-3.62-0.53-6.98-1.04-9.9-1.51
			l-0.15-0.03c-5.47-0.88-9.37-1.64-10.58-2.19c-1.22-0.55-0.48-1.21,1.33-2.21c2.26-1.26,6.19-3.05,10.07-5.85
			c6.99-5.03,14.19-49.43,16.33-50.26c2.12-0.82,6.11,2.95,9.5,4.23c0.06,0.02,0.1,0.04,0.16,0.06c0.24,0.09,0.69,0.19,1.33,0.3
			c1.93,0.35,5.54,0.84,10.01,1.35c0.47,0.06,0.94,0.11,1.43,0.16c1.88,0.22,3.88,0.44,5.96,0.65c0.01,0,0.01,0,0.01,0
			c0.62,0.08,1.24,0.13,1.88,0.2c0.01,0,0.01,0,0.01,0c2.07,0.22,4.19,0.43,6.3,0.63c0.5,0.05,0.99,0.1,1.49,0.14
			c3.76,0.35,7.49,0.69,10.91,0.95c0.01,0,0.01,0,0.01,0l1.4,0.11c2.63,0.2,5.05,0.36,7.11,0.49h0.01c0.47,0.02,0.92,0.04,1.34,0.06
			c1.22,0.06,2.28,0.1,3.15,0.1c1.14,0.02,1.95-0.02,2.3-0.11c3.53-0.96,8.9-4.06,11.4-2.51C582.67,221,581.13,269.44,578.5,276.81z
			"/>
		<path class="st51" d="M515.45,217.23c-1.58,0.93-3.54,2.43-5.06,4.73c-3.1,4.68-11.36,38.53-14.86,43.15
			c-3.5,4.61-8.06,8.08-8.06,8.08l-0.15-0.03l-1.78-0.39c0,0,1.06-2.98,6.91-7.66c5.87-4.69,12.7-39.98,16.2-43.95
			c1.71-1.94,3.71-3.35,5.32-4.28c0.06,0.02,0.1,0.04,0.16,0.06C514.36,217.02,514.81,217.13,515.45,217.23z"/>
		<path class="st51" d="M526.89,218.75c-2.51,1.35-6.81,3.95-8.56,6.66c-2.55,3.94-8.86,36.61-11.61,41.61
			c-1.77,3.23-4.24,6.37-5.76,8.19c-1.23-0.18-2.43-0.35-3.61-0.52l-0.01-0.01c0,0,3.97-3.38,7.31-8.78
			c3.34-5.4,7.75-37.94,13.68-42.38c3.45-2.58,5.78-4.11,7.12-4.94C525.93,218.65,526.41,218.7,526.89,218.75z"/>
		<path class="st51" d="M534.74,219.6c-1.99,1.39-5.37,4.22-6.91,8.19c-2.26,5.85-5.84,27.07-7.74,35.77
			c-1.38,6.29-4.13,11.28-5.55,13.55c-0.71-0.1-1.42-0.2-2.14-0.31c0.73-1.27,4.62-8.3,7.1-19.8c2.74-12.75,4.65-27.78,7.98-32.19
			c2.1-2.77,4.15-4.5,5.38-5.42c0.01,0,0.01,0,0.01,0C533.48,219.48,534.1,219.53,534.74,219.6z"/>
		<path class="st51" d="M542.54,220.37c-1.35,1.22-3.3,3.25-4.18,5.56c-1.43,3.73-4.62,29.09-6.2,39.58
			c-1.12,7.33-1.72,11.78-1.98,13.8c-1.37-0.2-2.77-0.4-4.19-0.6c1.55-4.92,5.67-18.47,7.2-28.62c1.91-12.64,2.15-21.46,4.05-24.72
			c1.21-2.06,2.79-4,3.81-5.14C541.55,220.28,542.05,220.32,542.54,220.37z"/>
		<path class="st51" d="M553.47,221.33c0,0-6.32,3.96-8.11,9.45c-1.79,5.48,1.43,28.26,0,37.08c-1.43,8.82-3.49,13.23-3.49,13.23
			l2.14,0.35c0,0,2.96-6.19,3.26-15.78c0.3-9.6-2.56-30.34-0.36-34.75c2.21-4.41,7.96-9.46,7.96-9.46L553.47,221.33z"/>
		<path class="st51" d="M563.33,221.98c-1.01,2.94-5.04,14.92-5.72,21.51c-0.61,5.92-2.8,36.17-3.1,40.17
			c-0.48-0.1-0.91-0.2-1.28-0.32c0,0,1.67-21.01,2.67-36.04c0.98-14.74,5.88-24.96,6.08-25.37h0.01
			C562.45,221.95,562.9,221.96,563.33,221.98z"/>
		<path class="st59" d="M578.5,276.81c-2.44,6.87-17.59,8.13-24,6.86c-0.48-0.1-0.91-0.2-1.28-0.32c-1.61-0.52-4.89-1.18-9.22-1.91
			l-2.14-0.35c-3.45-0.55-7.43-1.15-11.68-1.76c-1.37-0.2-2.77-0.4-4.19-0.6c-3.73-0.53-7.6-1.07-11.46-1.6
			c-0.71-0.1-1.42-0.2-2.14-0.31c-3.9-0.53-7.76-1.08-11.43-1.59c-1.23-0.18-2.43-0.35-3.61-0.52c-3.62-0.53-6.98-1.04-9.9-1.51
			l-0.15-0.03c-5.47-0.88-9.37-1.64-10.58-2.19c-1.22-0.55-0.48-1.21,1.33-2.21c0,0,50.29,6.77,62.85,1.84
			c12.56-4.93,11.07-29.41,13.96-36.72c1.8-4.56,7.54-9.05,11.61-11.8c1.14,0.02,1.95-0.02,2.3-0.11c3.53-0.96,8.9-4.06,11.4-2.51
			C582.67,221,581.13,269.44,578.5,276.81z"/>
	</g>
	<g>
		<path class="st60" d="M638.07,282.96c0.51,5.47,1.75,9.78-1.14,10.29c-4.05,0.72-30.57-4.15-45.93-3.39
			c-15.36,0.76-32.72-0.67-35.1-2.1c-1.33-0.79-1.21-1.79-0.55-3.12c0.65-1.31,1.82-2.94,2.67-5c0.24-0.55,0.44-1.14,0.6-1.76
			c0.1-0.35,0.18-0.72,0.25-1.09c0.29-1.64,0.51-6.02,0.73-11.54c0.03-0.6,0.06-1.21,0.08-1.84c0.11-2.73,0.23-5.68,0.35-8.67
			c0.03-0.69,0.06-1.38,0.09-2.08c0.12-2.9,0.26-5.81,0.41-8.57c0.04-0.75,0.08-1.5,0.12-2.22v-0.02c0.19-3.21,0.41-6.17,0.68-8.6
			c0.04-0.45,0.1-0.88,0.14-1.29c0.35-2.93,0.78-4.88,1.3-5.26c2.62-1.91,6.2,1.59,9.3,3.02c3.1,1.43,46.79,0.55,53.66-1.59
			c6.87-2.15,11.99-4.85,13.9-4.61c0.1,0.01,0.2,0.07,0.28,0.15c1,1.14-0.73,8.44-1.48,12.82v0.02c-0.18,1.09-0.31,2-0.31,2.58v0.1
			c0.01,0.77,0.07,2.61,0.14,5.08c0.02,0.49,0.04,1,0.05,1.54c0.11,3.43,0.24,7.77,0.3,12.15c0.02,0.78,0.03,1.57,0.03,2.36
			c0.03,3.31,0.02,6.56-0.07,9.39c-0.02,0.62-0.04,1.21-0.07,1.78c-0.09,1.79-0.21,3.34-0.38,4.54c-0.24,1.7-0.27,3.39-0.19,5
			C637.95,281.71,638,282.34,638.07,282.96z"/>
		<path class="st7" d="M638.42,236.52v0.02c-0.18,1.09-0.31,2-0.31,2.58v0.1c-3.21-0.15-31.32-1.5-49-2.96
			c-15.23-1.25-24.74-2.55-27.79-2.99c0.04-0.45,0.1-0.88,0.14-1.29c0,0,15.55,2.19,39.8,3.92
			C625.53,237.64,638.42,236.52,638.42,236.52z"/>
		<path class="st7" d="M638.31,245.84c-5.27,0.66-23.01,2.68-39.3,2.41c-18.06-0.29-36.1-3.68-38.49-4.14
			c0.04-0.75,0.08-1.5,0.12-2.22v-0.02c0,0,16.11,4.09,39.63,4.41c19.16,0.26,33.37-1.36,37.98-1.97
			C638.28,244.79,638.3,245.3,638.31,245.84z"/>
		<path class="st7" d="M638.63,260.35c-5.78,0.17-22.73,0.53-41.77-0.55c-19.64-1.14-32.96-4.09-36.84-5.04
			c0.03-0.69,0.06-1.38,0.09-2.08c3.13,1.48,12.93,4.87,37.78,5.75c23.02,0.81,35.52,0.05,40.71-0.44
			C638.62,258.77,638.63,259.56,638.63,260.35z"/>
		<path class="st7" d="M638.56,269.74c-0.02,0.62-0.04,1.21-0.07,1.78c-5.7,0.27-21.74,0.77-40.97-1
			c-20.97-1.95-34.72-4.6-37.93-5.26c0.03-0.6,0.06-1.21,0.08-1.84c3.67,0.84,14.99,3.11,38.38,5.38
			C619.72,270.91,633.03,270.24,638.56,269.74z"/>
		<path class="st7" d="M638.07,282.96c-4.12,0.53-22.95,2.68-45.73,1.14c-20.67-1.39-31.01-3.62-34.32-4.45
			c0.24-0.55,0.44-1.14,0.6-1.76c4.82,1.04,25.81,5.29,43.97,4.94c18.49-0.35,32.58-1.54,35.34-1.77
			C637.95,281.71,638,282.34,638.07,282.96z"/>
		<path class="st59" d="M638.07,282.96c0.51,5.47,1.75,9.78-1.14,10.29c-4.05,0.72-30.57-4.15-45.93-3.39
			c-15.36,0.76-32.72-0.67-35.1-2.1c-1.33-0.79-1.21-1.79-0.55-3.12c0,0,48.99,0,62.14-8.58c11.82-7.71,6.34-34.45,8.99-40.47
			c2.39-5.42,11.63-10.87,13.42-11.89c1,1.14-0.73,8.44-1.48,12.82v0.02c-0.18,1.09-0.31,2-0.31,2.58v0.1
			c0.01,0.77,0.07,2.61,0.14,5.08c0.02,0.49,0.04,1,0.05,1.54c0.11,3.43,0.24,7.77,0.3,12.15c0.02,0.78,0.03,1.57,0.03,2.36
			c0.03,3.31,0.02,6.56-0.07,9.39c-0.02,0.62-0.04,1.21-0.07,1.78c-0.09,1.79-0.21,3.34-0.38,4.54c-0.24,1.7-0.27,3.39-0.19,5
			C637.95,281.71,638,282.34,638.07,282.96z"/>
	</g>
	<path class="st61" d="M396.51,354.68c0,0-6.18,1.5-7.89,2.26c-1.71,0.76-2.12,27.56-2.12,27.56l-14.5,3.63l-1.31,19.21l66.39,36.17
		l199.15-87.82l8.27-11.38l-189.4,79.03c0,0-1.61-42.97-4.27-45.65C448.17,375,396.51,354.68,396.51,354.68z"/>
</g>
<g>
	<polygon class="st27" points="372.54,243.48 376.89,122.36 171.92,105.92 174.43,269.07 	"/>
	<polygon class="st1" points="381.78,118.83 391,118.83 381.89,247.08 377.29,246.51 	"/>
	<path class="st7" d="M160.5,95l6.8,182.51l219.49-27.68L398.33,114L160.5,95z M381.89,247.08l-209.38,26.4l-2.59-171.99L391,118.83
		L381.89,247.08z"/>
	<polygon class="st8" points="160.5,95 169.92,99.5 392,117.67 398.33,114 392.88,118.83 384.14,248.67 381.89,247.08 391,118.83 
		169.92,101.5 	"/>
	<path class="st62" d="M174.15,249.49c0,0,73.26-18.61,118.1-24.82c56.25-7.79,81.18-6.08,81.18-6.08l-0.89,24.89l-198.11,25.59
		L174.15,249.49z"/>
	<path class="st7" d="M218.83,155.89c2.37-0.59,3.16-1.19,3.16-1.19s9.89,1.8,13.94,1.15c4.05-0.65,6.72-3.52,6.72-3.52
		s3.07,1.9,6.13,2.33c3.07,0.43,4.35-1.25,4.35-1.25s10.68,2.49,15.82,1.25c5.14-1.25,5.24-3.32,5.24-3.32s5.09,2.08,11.47,3.26
		c6.38,1.19,8.9-1.33,8.9-1.33s8.53,2.49,13.57,3.34c5.04,0.85,6.6,0.39,6.6,0.39l25.36,0.57c0,0-0.3-1.19-6.82-2.97
		c-6.53-1.78-18.24,1.04-18.24,1.04s1.44-6.33-2.86-7.17c-4.3-0.84-12.26,3.36-12.26,3.36s8.68-10.63-1.11-12.85
		c-9.79-2.22-19.36,8.06-19.36,8.06s6.35-11.21-3.22-12.8c-8.29-1.38-11.02,10.46-11.02,10.46s-1.19-10.55-9.2-10.11
		c-8.01,0.45-5.64,15.28-5.64,15.28s-9.36-6.33-17.7-5.44c-7.1,0.76-7.51,9-7.51,9s-7.38-5.13-15.83-4.98
		c-8.45,0.15-10.42,8.54-10.42,8.54l5.19,0.02C204.1,157,216.46,156.48,218.83,155.89z"/>
	<path class="st63" d="M308.14,156.6c-5.04-0.85-13.57-3.34-13.57-3.34s-2.52,2.52-8.9,1.33c-6.38-1.19-11.47-3.26-11.47-3.26
		s-0.1,2.08-5.24,3.32c-5.14,1.25-15.82-1.25-15.82-1.25s-1.29,1.68-4.35,1.25c-3.07-0.43-6.13-2.33-6.13-2.33s-2.67,2.87-6.72,3.52
		c-4.05,0.65-13.94-1.15-13.94-1.15s-0.79,0.59-3.16,1.19c-2.37,0.59-14.73,1.11-14.73,1.11l136,0.57L314.74,157
		C314.74,157,313.18,157.46,308.14,156.6z"/>
	<path class="st7" d="M249,178.07c1.47-0.37,1.96-0.74,1.96-0.74s6.14,1.12,8.66,0.71c2.52-0.41,4.17-2.19,4.17-2.19
		s1.9,1.18,3.81,1.45c1.9,0.27,2.7-0.77,2.7-0.77s6.63,1.55,9.82,0.77c3.19-0.77,3.25-2.06,3.25-2.06s3.16,1.29,7.12,2.03
		c3.96,0.74,5.52-0.83,5.52-0.83s5.29,1.54,8.43,2.07c3.13,0.53,4.1,0.24,4.1,0.24l15.75,0.35c0,0-0.18-0.74-4.24-1.84
		c-4.05-1.1-11.33,0.64-11.33,0.64s0.89-3.93-1.78-4.45c-2.67-0.52-7.61,2.09-7.61,2.09s5.39-6.6-0.69-7.98
		c-6.08-1.38-12.02,5-12.02,5s3.94-6.96-2-7.95c-5.15-0.86-6.84,6.49-6.84,6.49s-0.74-6.55-5.71-6.28c-4.97,0.28-3.5,9.48-3.5,9.48
		s-5.81-3.93-10.99-3.38c-4.41,0.47-4.67,5.59-4.67,5.59s-4.58-3.18-9.83-3.09s-6.47,5.3-6.47,5.3l3.22,0.01
		C239.86,178.76,247.53,178.44,249,178.07z"/>
	<path class="st63" d="M304.45,178.51c-3.13-0.53-8.43-2.07-8.43-2.07s-1.57,1.57-5.52,0.83c-3.96-0.74-7.12-2.03-7.12-2.03
		s-0.06,1.29-3.25,2.06c-3.19,0.77-9.82-0.77-9.82-0.77s-0.8,1.04-2.7,0.77c-1.9-0.27-3.81-1.45-3.81-1.45s-1.66,1.78-4.17,2.19
		c-2.52,0.41-8.66-0.71-8.66-0.71s-0.49,0.37-1.96,0.74c-1.47,0.37-9.14,0.69-9.15,0.69l84.44,0.35l-15.75-0.35
		C308.55,178.76,307.58,179.04,304.45,178.51z"/>
	<path class="st64" d="M174.34,262.94c0,0,76.49-6.11,134.49-17.94c58-11.83,64.33-18.67,64.33-18.67l-0.63,17.14l-198.11,25.59
		L174.34,262.94z"/>
	<path class="st62" d="M324.67,221.25c0,0-10.58-3.42-9.33-5.25s3.83-1.58,3.83-1.58s-7.17-8.25-4.83-10.33
		c2.33-2.08,5.17,1.33,5.17,1.33s-3-8.83-0.08-9.83c2.92-1,6.92,3,6.92,3s-1.17-7.67,1.33-8.33s4.75,5.83,4.75,5.83
		s3.67-7,7.08-6.58c3.42,0.42,3.83,9,3.83,9s6.75-3.42,10.08-1.58c3.33,1.83-1.58,6.58-1.58,6.58s5.17-1.42,7.92-0.5s-1,6.75-1,6.75
		s4.5-0.67,6.92,0.33c2.42,1,2.25,4.42,2.25,4.42s0.25-1.83,2-2.17c1.75-0.33,3.52,6.26,3.52,6.26L324.67,221.25z"/>
	<path class="st62" d="M207.86,245.11c0,0,6.9-7.73,4.53-8.36c-2.38-0.63-4.65,3.3-4.65,3.3s4.57-10.58,2.78-11.11
		c-1.79-0.53-5.45,7.73-5.45,7.73s-3.63-6.9-5.75-5.66c-2.11,1.24,2.49,7.43,2.49,7.43s-8.07-2.25-8.74-1.07
		c-0.67,1.18,8.88,7.01,8.88,7.01L207.86,245.11z"/>
	<polygon class="st65" points="326.97,118.36 173.39,201.67 173.84,230.67 356.02,120.69 	"/>
	<polygon class="st65" points="371.29,121.92 174.02,242.68 174.23,256.35 376.67,128.33 376.89,122.36 	"/>
	<polygon class="st65" points="379.02,197.38 378.63,208.36 373.69,211.49 310.41,251.51 302.79,256.33 277.23,259.69 
		285.31,254.75 374.09,200.4 	"/>
	<path class="st66" d="M377.29,158.88V157H337.9l1.1-38.17l-2.5-1.08L335.75,157h-51.28l-1.26-42.74h-4.2l1.91,42.74H227v-47.19
		h-3.32L223.57,157h-51.06v3.5l51.06-0.41l-0.12,55.23l-50.93,3.18v2.13l50.93-3.37l-0.1,45.5l3.67,0.2v-45.93l56.45-3.74
		l1.97,43.97h2l-1.3-44.15l48.62-3.22L334,248.67h1.25l1.12-38.89l40-2.65l0.51-1.38l-40.47,2.52l1.42-49.09L377.29,158.88z
		 M227,215.1v-55.03l54.05-0.43l2.32,51.95L227,215.1z M334.77,208.38l-48.7,3.04l-1.52-51.8l51.16-0.41L334.77,208.38z"/>
	<path class="st66" d="M169.92,101.5l2.59,171.99l104.72-13.8l25.56-3.36l74.5-9.82l1.34-38.15l0.39-10.98l2.76-78.55L169.92,101.5z
		 M373.69,211.49l-1.15,31.99l-62.13,8.03l-25.1,3.24l-110.88,14.32l-2.51-163.15l204.97,16.44l-2.8,78.04L373.69,211.49z"/>
</g>
<g>
	<g>
		<polygon class="st67" points="800,43.33 456.51,97 0,42 0,0 800,0 		"/>
		<polygon class="st47" points="767.56,0 449.52,78 33.72,0 		"/>
		<polygon class="st68" points="732,0 449.52,72.5 449.52,78 767.56,0 		"/>
		<polygon class="st69" points="449.52,78 449.52,72.5 73.33,0 33.72,0 		"/>
		<polygon class="st5" points="689.33,0 440.44,68.67 96.68,0 78.65,0 449.52,72.5 732,0 		"/>
		<path class="st9" d="M565.67,0c0,0-12,17-42.67,36.25c-37.36,23.45-94.09,32.22-94.09,32.22l3.28,6.28l-18.59,17.08l42.9,5.17
			L800,43.33V0H565.67z"/>
	</g>
	<defs>
		<filter id="Adobe_OpacityMaskFilter_6_" filterUnits="userSpaceOnUse" x="137.86" y="19.54" width="258.38" height="69.29">
			<feFlood  style="flood-color:white;flood-opacity:1" result="back"/>
			<feBlend  in="SourceGraphic" in2="back" mode="normal"/>
		</filter>
	</defs>
	<mask maskUnits="userSpaceOnUse" x="137.86" y="19.54" width="258.38" height="69.29" id="SVGID_10_">
		<g class="st70">
			<defs>
				<filter id="Adobe_OpacityMaskFilter_7_" filterUnits="userSpaceOnUse" x="137.86" y="19.54" width="258.38" height="69.29">
					<feFlood  style="flood-color:white;flood-opacity:1" result="back"/>
					<feBlend  in="SourceGraphic" in2="back" mode="normal"/>
				</filter>
			</defs>
			<mask maskUnits="userSpaceOnUse" x="137.86" y="19.54" width="258.38" height="69.29" id="SVGID_10_">
			</mask>
			<linearGradient id="SVGID_11_" gradientUnits="userSpaceOnUse" x1="206.0919" y1="-30.0337" x2="325.673" y2="134.5556">
				<stop  offset="0.2129" style="stop-color:#000000"/>
				<stop  offset="1" style="stop-color:#FFFFFF"/>
			</linearGradient>
			<polygon class="st72" points="152.89,60.42 137.86,19.54 396.24,68.01 388.62,88.82 			"/>
		</g>
	</mask>
	<linearGradient id="SVGID_12_" gradientUnits="userSpaceOnUse" x1="206.0919" y1="-30.0337" x2="325.673" y2="134.5556">
		<stop  offset="0.2129" style="stop-color:#000000"/>
		<stop  offset="1" style="stop-color:#FFFFFF"/>
	</linearGradient>
	<polygon class="st73" points="152.89,60.42 137.86,19.54 396.24,68.01 388.62,88.82 	"/>
</g>
<g>
	<g>
		<polygon class="st18" points="656.48,275.72 656.46,357 712.4,371.63 714.74,283.18 		"/>
		<polygon class="st14" points="659.35,278.54 659.33,353.47 709.54,366.61 709.54,285.36 		"/>
		<polygon class="st19" points="659.33,315.21 701.67,312.63 709.54,312.63 709.54,324.63 		"/>
		<polygon class="st14" points="764.73,278.68 689.42,273.52 656.48,275.72 714.74,283.18 712.4,371.63 758.83,356.5 		"/>
		<polygon class="st20" points="714.74,283.18 764.73,278.68 758.83,356.5 712.4,371.63 		"/>
		<polygon class="st18" points="709.54,324.63 657.5,314.87 657.5,316.6 709.54,330.6 		"/>
		<polygon class="st19" points="659.33,353.47 701.67,350.42 709.54,351.27 709.54,366.61 		"/>
		<polygon class="st21" points="659.35,278.54 702.8,296.48 703.84,312.63 709.54,312.63 709.54,285.36 		"/>
		<polygon class="st21" points="659.93,317.25 709.54,330.6 709.54,351.27 701.67,350.42 700.41,335.11 		"/>
		<polygon class="st12" points="757.58,356.91 756.73,362 750.83,363.75 749.75,361.08 715.81,372.98 713.47,375.84 708.09,375.84 
			706.16,371.63 664.4,362.41 662.12,364.7 658.01,363.67 657.5,357.27 712.4,371.63 		"/>
	</g>
	<g>
		<path class="st74" d="M726.31,249.18l-6.93,30.3c0,0-7.08,1.02-14.07,0.2l-0.09-0.02c-1.21-0.14-2.42-0.33-3.59-0.61l-0.01,0
			c-0.78-0.19-1.56-0.4-2.29-0.65l-2.96-29.81l23.25,0.46c0.01,0,0.01,0,0.01,0L726.31,249.18z"/>
		<path class="st75" d="M719.61,249.05c-0.33,0.16-7.32,3.45-11.09,10.33c-3.87,7.04-3.22,20.3-3.22,20.3l-0.09-0.02l-3.59-0.61
			l-0.01,0c-0.78-0.19-1.56-0.4-2.29-0.65l-2.96-29.81L719.61,249.05z"/>
		<path class="st14" d="M696.4,248.96c0,0,5.78,1.78,15.32,1.96c8.37,0.16,14.45-1.17,14.45-1.17L696.4,248.96z"/>
		<path class="st76" d="M723.82,249.61l2.83-19.05l-3.44,8.93l0.92-14.86l-2,10.16l0.34-8.2l-4.74,12.75l1.01-9.32l-4.66,12.01
			l0-18.48l-2.77,12.52l-1.48-11.31l-1.97,16.03l-2.52-20.46l-1.01,16.8l-5.06-14.76l2.42,23.46l-5.96-13.98l2.88,17.16
			c0,0,5.89,1.18,12.55,1.36C717.83,250.57,723.82,249.61,723.82,249.61z"/>
		<polygon class="st64" points="700.5,249.13 695.29,220.65 703.42,249.97 		"/>
		<polygon class="st64" points="705.34,250.03 708.47,225.07 707.49,250.35 		"/>
		<polygon class="st64" points="699.71,249.32 694.57,234.25 698.41,249.18 		"/>
		<polygon class="st64" points="710.06,250.44 718.71,225.72 713.49,250.64 		"/>
		<polygon class="st64" points="717.28,250.29 726.25,226.54 721.8,249.96 		"/>
		<polygon class="st64" points="722.55,249.81 726.28,234 724.14,249.78 		"/>
		<polygon class="st64" points="714.42,250.43 721.28,225.24 717.26,250.42 		"/>
	</g>
</g>
</svg>
