<?xml version="1.0" encoding="utf-8"?>
<!-- Generator: Adobe Illustrator 23.0.1, SVG Export Plug-In . SVG Version: 6.00 Build 0)  -->
<svg version="1.1" id="Layer_1" xmlns="http://www.w3.org/2000/svg" xmlns:xlink="http://www.w3.org/1999/xlink" x="0px" y="0px"
	 viewBox="0 0 841.89 595.28" style="enable-background:new 0 0 841.89 595.28;" xml:space="preserve">
<style type="text/css">
	.st0{opacity:0.72;fill:#E0E1E0;}
	.st1{fill:#5D5149;}
	.st2{fill:#C9C5B4;}
	.st3{fill:#2A2C47;}
	.st4{fill:#D4C2BD;}
	.st5{fill:#DE9674;}
	.st6{fill:#D44140;}
	.st7{fill:#EFA986;}
	.st8{fill:#E6D3CC;}
	.st9{fill:#DED2C6;}
	.st10{fill:#BC8552;}
	.st11{fill:#A77961;}
	.st12{opacity:0.72;fill:#FFFFFF;}
	.st13{fill:#807167;}
	.st14{fill:#E0E1E0;}
	.st15{fill:#85BCE6;}
	.st16{fill:#71B2E1;}
	.st17{fill:#A9D3F1;}
	.st18{fill:#FFC656;}
	.st19{fill:#FFFFFF;}
	.st20{fill:#CFC247;}
	.st21{fill:#A09834;}
	.st22{fill:#727644;}
	.st23{fill:#4C4C38;}
	.st24{fill:#454633;}
	.st25{fill:#7D786C;}
	.st26{fill:#746E39;}
	.st27{fill:#497939;}
	.st28{fill:#93B957;}
	.st29{fill:#377137;}
	.st30{fill:#5C8139;}
	.st31{fill:#4C5F2A;}
	.st32{fill:#3B482E;}
	.st33{fill:#6B903C;}
	.st34{fill:#47412C;}
	.st35{fill:#706D3B;}
	.st36{fill:#868145;}
	.st37{fill:url(#SVGID_1_);}
	.st38{filter:url(#Adobe_OpacityMaskFilter);}
	.st39{filter:url(#Adobe_OpacityMaskFilter_1_);}
	.st40{mask:url(#SVGID_2_);fill:url(#SVGID_3_);}
	.st41{fill:url(#SVGID_4_);}
	.st42{fill:url(#SVGID_5_);}
	.st43{fill:url(#SVGID_6_);}
	.st44{fill:url(#SVGID_7_);}
</style>
<g>
	<path class="st0" d="M469.25,224.19h24.86c7.11,0,12.87-5.76,12.87-12.87v-24.86c0-7.11-5.76-12.87-12.87-12.87h-24.86
		c-7.11,0-12.87,5.76-12.87,12.87v24.86C456.39,218.43,462.15,224.19,469.25,224.19z"/>
	<g>
		<g>
			<polygon class="st1" points="438.98,499.57 422.12,387.48 425.37,386.98 442.22,499.07 			"/>
		</g>
		<g>
			<polygon class="st1" points="418.39,499.57 401.54,387.48 404.79,386.98 421.64,499.07 			"/>
		</g>
		<g>
			<polygon class="st1" points="317.02,499.57 313.77,499.07 330.63,386.98 333.87,387.48 			"/>
		</g>
		<path class="st2" d="M427.4,388.62l13.2-138.9c0,0-23.09-3.02-37.05-2.28l-20.97,141.18H427.4z"/>
		<rect x="382.58" y="381.56" class="st2" width="44.81" height="7.06"/>
		<path class="st2" d="M353.27,382.96l-7-132.37c0,0,58.44-6.35,94.34-0.88L353.27,382.96z"/>
		<path class="st3" d="M399.93,207.73c0,0,9.02-26.46-8.2-34.67c-17.22-8.2-31.84,3.66-34.6,10.07c-2.76,6.42-2.03,18.09,0.33,26.22
			c2.36,8.14,2.01,20.52-3.11,24.67c-5.12,4.14-11.46,11.02-11.15,25.03c0.2,8.69,34.19-22.23,34.19-22.23L399.93,207.73z"/>
		<path class="st4" d="M376.96,492.5c0,0-0.54,18.7,2.13,19.83c2.67,1.13,12.78-5.38,17.24-11.81c4.46-6.43-5.59-21.4-7.23-29.66
			c-0.69-3.46-8.54-9.68-12.37-7.9c-3.83,1.78-6.63,6.35-6.63,6.35S379.84,475.99,376.96,492.5z"/>
		<g>
			<path class="st5" d="M370.09,469.31c0,0,3.32,6.38,5.02,11.33c1.7,4.95,2.02,18.66,3.1,19.62c1.08,0.95,9.54-3.32,10.68-8.45
				c1.13-5.13-2.3-15.38-5.57-20.77c-3.27-5.39-6.6-8.09-6.6-8.09S370.94,464.09,370.09,469.31z"/>
		</g>
		<polygon class="st4" points="389.09,470.86 398.19,484.14 396.47,485.32 389.44,475.06 		"/>
		<path class="st5" d="M356.33,323.99c0,0,4.45,7.52,0,12.99c-4.45,5.47-34.37,20.5-34.16,29.18c0.22,8.68,5.7,22.27,7.67,25.72
			c1.97,3.45,9.24,17.75,13.01,26.12c3.78,8.37,25.61,48.43,29.88,57.45c4.27,9.03,1.64-36.11,1.64-36.11l-21.83-64.02l51.01-49.69
			C403.55,325.63,397.38,311.89,356.33,323.99z"/>
		<path class="st6" d="M375.74,239.21c0,0-14.15,3.14-19.77,6.42c-5.62,3.28-18.09,18.39-18.09,24.88
			c0,6.49,54.56,12.56,54.56,12.56l10.34,37.76c0,0,27.58-6.73,30.86-12.31s-10.86-45.31-12.83-53.68
			c-1.97-8.37-12.29-14.02-23.78-15.63S375.74,239.21,375.74,239.21z"/>
		<path class="st7" d="M409.19,325.23c0,0-0.98,6.46,1.64,9.19c2.63,2.74,14.72,18.69,8.32,34.36
			c-5.88,14.39-17.29,14.12-17.29,14.12H384.2c0,0,5.13,25.91,3.47,42.98c-1.66,17.07-9.44,56.06-9.61,58.03
			c-0.16,1.97-7.46,8.13-9.6,5.01c0,0-0.2-23.47-1.35-32.34c-1.15-8.86-6.04-44.32-7.52-49.57c-1.48-5.25-10.18-21.18-10.18-22.82
			c0-1.64-8.5-27.34,10.05-33.91C378.03,343.71,384.58,325.37,409.19,325.23z"/>
		<path class="st8" d="M359.68,507.02c0,0-12.18,14.2-10.81,16.76c1.37,2.55,13.32,3.85,20.83,1.66c7.51-2.2,9.11-20.15,13.03-27.61
			c1.64-3.12-0.56-12.9-4.66-13.92c-4.1-1.02-9.14,0.77-9.14,0.77S372.3,496,359.68,507.02z"/>
		<g>
			<path class="st7" d="M368.92,484.68c0,0-1.43,7.05-3.22,11.97c-1.79,4.92-10.16,15.78-9.93,17.2c0.24,1.42,9.51,3.42,13.61,0.14
				c4.1-3.28,7.88-13.41,8.72-19.65c0.85-6.25-0.04-10.43-0.04-10.43S372.87,481.15,368.92,484.68z"/>
		</g>
		<polygon class="st8" points="382.72,497.83 381.44,513.88 379.36,513.71 380.35,501.31 		"/>
		<path class="st3" d="M419.15,368.79c-5.55,14.58-17.29,14.12-17.29,14.12H384.2c0,0-7.37-11.67-25.4-13.68
			c-4-0.44-8.52-0.41-13.6,0.32c-0.06,0.01-0.12,0.02-0.18,0.03c-23.96,3.55-19.34,12.35-19.26,12.58
			c-1.99-4.86-4.08-12.6-3.58-16.76c2.3-18.97,29.7-22.95,34.16-28.42c4.45-5.47,0-12.99,0-12.99c41.05-12.1,47.22,1.64,47.22,1.64
			c1.8-0.25,6.41-2.91,8.37-2.92c0,0,2.06,4.49,3.5,8.54C416.7,334.82,425.18,352.96,419.15,368.79z"/>
		<polygon class="st9" points="402.12,264.36 408.19,320.82 328.25,320.82 322.17,264.36 		"/>
		<rect x="401.2" y="315.74" class="st9" width="13.35" height="5.08"/>
		<rect x="245.3" y="320.82" class="st10" width="249.44" height="7.69"/>
		<path class="st7" d="M384.58,177.57c0,0,17.91,5.3,15.35,30.16c-2.56,24.86-14.25,23.58-15.35,23.76
			c-1.1,0.18-14.99,1.1-19.37-29.06C360.82,172.27,384.58,177.57,384.58,177.57z"/>
		<path class="st7" d="M393.12,226.91c0,0-0.95,8.23,0.64,13.35c1.58,5.12-20.86,5.26-20.85,1.05c0.01-4.78,2.3-8.77,0.15-16.97
			C370.9,216.15,393.12,226.91,393.12,226.91z"/>
		<path class="st3" d="M379.96,188.66c0,0,9.73,15.48,19.97,19.07c0,0,5.59-25.98-17.51-31.42c-23.1-5.44-19.48,26.24-17.76,34.69
			C364.67,210.99,369.48,198.57,379.96,188.66z"/>
		<path class="st11" d="M375.71,227.96c0,0,7.09,7.38,16.15,0.77c0,0-0.75,4.72-7.27,5.33
			C378.07,234.67,375.71,227.96,375.71,227.96z"/>
		<path class="st12" d="M366.91,186.32c0,0,5.12-9.92,13.77-10.36c8.65-0.44,13.79,7.06,13.79,7.06s-3.38-8.45-13.78-8.45
			C370.28,174.57,366.91,186.32,366.91,186.32z"/>
		<path class="st7" d="M396.05,239.08c0,0-0.32,17.2-13.96,17.71c-13.64,0.51-10.8-16.5-10.8-16.5S381.26,236.25,396.05,239.08z"/>
		<rect x="489.08" y="328.51" class="st13" width="5.65" height="176.56"/>
		<rect x="253.75" y="328.51" class="st13" width="5.65" height="176.56"/>
	</g>
	<rect x="521.72" y="182.91" class="st14" width="48.43" height="4.45"/>
	<rect x="521.72" y="202.98" class="st14" width="83.73" height="4.45"/>
	<rect x="521.72" y="192.94" class="st14" width="65.83" height="4.45"/>
	<rect x="521.72" y="213.01" class="st14" width="36.5" height="4.45"/>
	<g>
		<rect x="464.12" y="186.87" class="st15" width="35.14" height="24.06"/>
		<polygon class="st16" points="464.12,210.93 481.69,197.47 499.26,210.92 		"/>
		<polygon class="st17" points="499.25,186.86 481.69,201.85 464.11,186.87 		"/>
	</g>
	<path class="st0" d="M421.06,154.68h24.86c7.11,0,12.87-5.76,12.87-12.87v-24.86c0-7.11-5.76-12.87-12.87-12.87h-24.86
		c-7.11,0-12.87,5.76-12.87,12.87v24.86C408.19,148.92,413.95,154.68,421.06,154.68z"/>
	<rect x="473.52" y="113.39" class="st14" width="91.23" height="4.45"/>
	<rect x="473.52" y="133.46" class="st14" width="118.41" height="4.45"/>
	<rect x="473.52" y="123.43" class="st14" width="46.77" height="4.45"/>
	<rect x="473.52" y="143.49" class="st14" width="67.52" height="4.45"/>
	<g>
		<rect x="415.92" y="117.35" class="st15" width="35.14" height="24.06"/>
		<polygon class="st16" points="415.92,141.41 433.49,127.96 451.06,141.4 		"/>
		<polygon class="st17" points="451.05,117.35 433.49,132.34 415.92,117.35 		"/>
	</g>
	<rect x="521.72" y="251.43" class="st14" width="65.17" height="4.45"/>
	<g>
		<g>
			<g>
				<polygon class="st18" points="256.12,121.62 340.26,122.01 339.98,182.99 339.92,195.84 327.14,182.93 255.84,182.6 				"/>
			</g>
		</g>
		<path class="st19" d="M291.62,154.72c-0.01,3.55,2.86,6.44,6.41,6.45c3.55,0.01,6.43-2.86,6.45-6.41
			c0.01-3.55-2.86-6.44-6.41-6.45C294.52,148.31,291.63,151.17,291.62,154.72z"/>
		<path class="st19" d="M270.52,154.66c-0.01,3.55,2.86,6.44,6.41,6.45c3.55,0.01,6.44-2.86,6.45-6.41
			c0.01-3.55-2.86-6.44-6.41-6.45C273.41,148.24,270.53,151.11,270.52,154.66z"/>
		<path class="st19" d="M312.24,154.79c-0.01,3.55,2.86,6.44,6.41,6.45c3.55,0.01,6.43-2.86,6.45-6.41
			c0.01-3.55-2.86-6.43-6.41-6.45C315.14,148.37,312.25,151.24,312.24,154.79z"/>
	</g>
	<g>
		<path class="st20" d="M296.43,300.87L296.43,300.87c0,0,4.78,2.29,3.53,1.25c-1.25-1.04,3.12-6.85,9.14-14.54
			c6.02-7.69,2.08-11.01-1.66-19.94c-1.49-3.55-4.09-4.87-6.58-4.8c-3.77,0.1-7.27,3.38-6.23,6.88c1.73,5.82,4.08,11.42-0.28,17.24
			C290.03,292.72,296.31,300.73,296.43,300.87z"/>
		<path class="st20" d="M309.4,269.61c2.92-1.45,6.45-6.65,3.54-7.89c-2.91-1.25-0.64-4.99-3.54-4.99s-4.35,4.51-2.69,7.03
			C306.71,263.77,306.49,271.06,309.4,269.61z"/>
		<path class="st20" d="M310.14,256.85c0,0,4.57-3.95,0-4.78c-4.57-0.83-3.32,4.15-2.91,4.78
			C307.64,257.47,310.14,256.85,310.14,256.85z"/>
		<path class="st21" d="M292.07,270.65c3.53-0.62,3.53-4.15,3.53-4.15s-2.8-5.19-5.19-2.8
			C288.02,266.08,288.53,271.27,292.07,270.65z"/>
		<path class="st21" d="M296.43,300.87L296.43,300.87c0,0,6.96-12.67,3.32-21.6c-2.55-6.26-0.4-12.97,1.11-16.44
			c-3.77,0.1-7.27,3.38-6.23,6.88c1.73,5.82,4.08,11.42-0.28,17.24C290.03,292.72,296.31,300.73,296.43,300.87z"/>
		<polygon class="st22" points="308.57,300.72 287.96,300.72 288.84,303.73 307.82,303.73 		"/>
		<polygon class="st23" points="304.18,320.82 305.89,307.14 306.31,303.73 290.48,303.73 292.49,320.82 		"/>
		<polygon class="st22" points="309.46,278.23 314.03,275.11 309.46,277.61 		"/>
		<polygon class="st22" points="304.27,257.77 306.76,260 306.97,259.48 		"/>
		<polygon class="st22" points="310.4,259.59 313.41,259.17 310.66,259.17 		"/>
		<polygon class="st22" points="307.39,249.57 308.27,252.58 308.63,252.58 		"/>
		<polygon class="st22" points="310.92,252.58 311.18,252.99 313.15,251.33 		"/>
		<polygon class="st22" points="309.46,252.16 310.02,252.37 309.46,250.4 		"/>
		<polygon class="st22" points="308.11,284.72 310.02,289.5 309.1,284.72 		"/>
		<polygon class="st22" points="290.82,266.46 286.87,263.76 290.47,266.88 		"/>
		<polygon class="st22" points="293.87,289.5 288.19,290.42 293.87,290.42 		"/>
		<path class="st24" d="M305.89,307.14l0.43-3.41h-15.83l2.01,17.09h3.86C296.03,311.43,302.8,308.15,305.89,307.14z"/>
	</g>
	<g>
		<polygon class="st25" points="299.26,294.31 299.13,295.69 298.7,300.2 298.59,301.33 298.42,303.21 298.31,304.35 297.39,314.03 
			296.8,320.3 296.75,320.82 267.13,320.82 267.03,319.34 265.9,301.42 265.53,295.69 265.48,294.93 265.47,294.66 265.3,292.06 
			281.02,293.1 281.88,293.16 284.46,293.33 292.95,293.9 293.22,293.91 299.01,294.3 		"/>
		<path class="st26" d="M295.43,286.45l5.02-23.3c0,0-9.09,17.69-9.09,25.1C291.37,295.66,295.43,286.45,295.43,286.45z"/>
		<path class="st27" d="M293.04,285.15c0,0,5.02-32.76,1.43-42.56c0,0-7.17,32.65-6.46,43.86
			C288.74,297.66,293.04,285.15,293.04,285.15z"/>
		<path class="st28" d="M273.67,288.25c-0.96-5.74-8.37-21.4-8.37-21.4c-0.48,8.01,3.59,21.4,3.59,21.4S274.63,293.99,273.67,288.25
			z"/>
		<path class="st29" d="M276.3,287.78c-0.72-6.69-8.37-31.8-8.37-31.8c-0.96,6.46,3.59,31.8,3.59,31.8S277.02,294.47,276.3,287.78z"
			/>
		<path class="st30" d="M278.69,288.01c-0.48-2.87-6.61-47.58-6.61-47.58c-2.54,6.69,1.7,46.01,1.7,46.01
			C274.03,288.88,279.17,290.88,278.69,288.01z"/>
		<path class="st31" d="M281.08,286.45c0-3.72-4.72-56.77-4.72-56.77c-0.65,3.35-2.59,35.25-2.59,35.25l2.52,22.84
			C276.3,287.78,281.08,290.17,281.08,286.45z"/>
		<path class="st32" d="M289.72,239.48c0,0-7.92,42.4-7.44,49.05c0.48,6.65,8.18,9.31,7.44-20.71
			C289.72,267.82,290.22,244.98,289.72,239.48z"/>
		<path class="st33" d="M287.97,263.15c0,0-0.68-13.39-1.87-17.93c0,0-5.73,40.84-5.01,44.21
			C281.8,292.8,286.93,282.94,287.97,263.15z"/>
		<path class="st34" d="M284.49,273.36c1.26-14.59-4.61-36.99-4.61-36.99c-1.67,3.35-2.46,22.73-2.46,22.73s2.22,31.78,3.59,34
			C282.39,295.32,283.24,287.96,284.49,273.36z"/>
		<path class="st35" d="M299.26,294.31l-0.13,1.38l-0.43,4.5l-0.11,1.13l-0.18,1.88l-0.11,1.14c-1.71,0.36-4.3,1.28-7.27,3.66
			c-3.05,2.43-6.49,6.39-9.79,12.82h-14.13l-0.1-1.49l-1.14-17.91l-0.37-5.73l-0.05-0.77l-0.02-0.27l18.99-0.53l8.5-0.24l0.26,0.02
			l5.79,0.39L299.26,294.31z"/>
		<polygon class="st36" points="264.95,286.45 262.75,295.69 301.81,295.69 299.34,286.45 		"/>
	</g>
	<rect x="521.72" y="271.5" class="st14" width="90.86" height="4.45"/>
	<rect x="521.72" y="261.46" class="st14" width="54.4" height="4.45"/>
	<rect x="521.72" y="281.53" class="st14" width="37.16" height="4.45"/>
	<g>
		<linearGradient id="SVGID_1_" gradientUnits="userSpaceOnUse" x1="446.0815" y1="307.5614" x2="476.3101" y2="307.5614">
			<stop  offset="0" style="stop-color:#F89E59"/>
			<stop  offset="1" style="stop-color:#FFD356"/>
		</linearGradient>
		<path class="st37" d="M474.34,299.1c-1.73-1.15-4.12-0.87-5.77-0.46l0.6-4.34h-23.09l3.7,26.53h15.7l0.35-2.48l0.33-2.38
			c2.38-0.05,4.51-0.89,6.23-2.46c2.5-2.29,3.93-5.97,3.93-10.11C476.31,300.93,475.24,299.7,474.34,299.1z M470.68,311.65
			c-1.17,1.07-2.57,1.67-4.17,1.78l1.68-12.05c1.23-0.42,3.57-0.97,4.76-0.18c0.21,0.14,0.84,0.56,0.84,2.2
			C473.79,306.83,472.66,309.84,470.68,311.65z"/>
		<defs>
			<filter id="Adobe_OpacityMaskFilter" filterUnits="userSpaceOnUse" x="446.08" y="294.3" width="19.4" height="26.53">
				<feFlood  style="flood-color:white;flood-opacity:1" result="back"/>
				<feBlend  in="SourceGraphic" in2="back" mode="normal"/>
			</filter>
		</defs>
		<mask maskUnits="userSpaceOnUse" x="446.08" y="294.3" width="19.4" height="26.53" id="SVGID_2_">
			<g class="st38">
				<defs>
					<filter id="Adobe_OpacityMaskFilter_1_" filterUnits="userSpaceOnUse" x="446.08" y="294.3" width="19.4" height="26.53">
						<feFlood  style="flood-color:white;flood-opacity:1" result="back"/>
						<feBlend  in="SourceGraphic" in2="back" mode="normal"/>
					</filter>
				</defs>
				<mask maskUnits="userSpaceOnUse" x="446.08" y="294.3" width="19.4" height="26.53" id="SVGID_2_">
				</mask>
				<linearGradient id="SVGID_3_" gradientUnits="userSpaceOnUse" x1="447.0044" y1="323.6361" x2="458.2352" y2="303.0638">
					<stop  offset="0" style="stop-color:#FFFFFF"/>
					<stop  offset="1" style="stop-color:#000000"/>
				</linearGradient>
				<path class="st40" d="M465.48,320.82L465.48,320.82h-15.7l-3.7-26.53h8.5C454.58,294.3,451.53,318.24,465.48,320.82
					C465.48,320.82,465.48,320.82,465.48,320.82z"/>
			</g>
		</mask>
		<linearGradient id="SVGID_4_" gradientUnits="userSpaceOnUse" x1="447.0044" y1="323.6361" x2="458.2352" y2="303.0638">
			<stop  offset="0" style="stop-color:#F9A059"/>
			<stop  offset="1" style="stop-color:#F9A059"/>
		</linearGradient>
		<path class="st41" d="M465.48,320.82L465.48,320.82h-15.7l-3.7-26.53h8.5C454.58,294.3,451.53,318.24,465.48,320.82
			C465.48,320.82,465.48,320.82,465.48,320.82z"/>
		<linearGradient id="SVGID_5_" gradientUnits="userSpaceOnUse" x1="450.8191" y1="294.4719" x2="458.0829" y2="281.1661">
			<stop  offset="5.181350e-03" style="stop-color:#E6E6E5"/>
			<stop  offset="1" style="stop-color:#FEDBC2"/>
		</linearGradient>
		<path class="st42" d="M456.71,276.03c0,0-4.86,1.62-3.06,5.93c1.8,4.32,4.89,7.03,1.98,12.33c0,0,5.39-3.25,2.88-8.64
			C455.99,280.26,454.46,278.73,456.71,276.03z"/>
		<linearGradient id="SVGID_6_" gradientUnits="userSpaceOnUse" x1="459.3498" y1="294.4259" x2="464.678" y2="284.6657">
			<stop  offset="5.181350e-03" style="stop-color:#E6E6E5"/>
			<stop  offset="1" style="stop-color:#FEDBC2"/>
		</linearGradient>
		<path class="st43" d="M463.67,280.9c0,0-3.56,1.19-2.24,4.35c1.32,3.17,3.59,5.16,1.45,9.04c0,0,3.96-2.38,2.11-6.34
			C463.14,284,462.02,282.88,463.67,280.9z"/>
		<linearGradient id="SVGID_7_" gradientUnits="userSpaceOnUse" x1="446.4013" y1="294.4259" x2="451.7296" y2="284.6657">
			<stop  offset="5.181350e-03" style="stop-color:#E6E6E5"/>
			<stop  offset="1" style="stop-color:#FEDBC2"/>
		</linearGradient>
		<path class="st44" d="M450.72,280.9c0,0-3.56,1.19-2.24,4.35c1.32,3.17,3.59,5.16,1.45,9.04c0,0,3.96-2.38,2.11-6.34
			C450.19,284,449.07,282.88,450.72,280.9z"/>
	</g>
	<path class="st0" d="M469.25,292.71h24.86c7.11,0,12.87-5.76,12.87-12.87v-24.86c0-7.11-5.76-12.87-12.87-12.87h-24.86
		c-7.11,0-12.87,5.76-12.87,12.87v24.86C456.39,286.95,462.15,292.71,469.25,292.71z"/>
	<g>
		<rect x="464.12" y="255.39" class="st15" width="35.14" height="24.06"/>
		<polygon class="st16" points="464.12,279.45 481.69,265.99 499.26,279.44 		"/>
		<polygon class="st17" points="499.25,255.38 481.69,270.37 464.11,255.39 		"/>
	</g>
</g>
</svg>
